<svg version="1.1" xmlns="http://www.w3.org/2000/svg" xmlns:xlink="http://www.w3.org/1999/xlink" width="1300" height="477" viewBox="0 0 1300 477"><defs/><g transform="matrix(1,0,0,1,0,0)"><g><g><g><path fill="none" stroke="#d3d3d3" paint-order="fill stroke markers" d=" M 0 0 L 1200 0" stroke-miterlimit="10" stroke-opacity="0.8" stroke-dasharray="5"/></g><g><path fill="none" stroke="#d3d3d3" paint-order="fill stroke markers" d=" M 0 0 L 0 800" stroke-miterlimit="10" stroke-opacity="0.8" stroke-dasharray="5"/></g></g><g id="Task_EndOfDayReport" bpmn2nodeid="Task_EndOfDayReport" transform="matrix(1,0,0,1,120,200)"><g><path fill="none" stroke="none"/></g><g transform="matrix(1,0,0,1,0,0)"><path fill="#ffffff" stroke="none" id="Task_EndOfDayReport?shapeType=BACKGROUND" paint-order="stroke fill markers" d=" M 2 0 L 98 0 L 98 0 A 2 2 0 0 1 100 2 L 100 78 L 100 78 A 2 2 0 0 1 98 80 L 2 80 L 2 80 A 2 2 0 0 1 0 78 L 0 2 L 0 2.0000000000000004 A 2 2 0 0 1 1.9999999999999996 0 Z"/></g><g transform="matrix(1,0,0,1,0,0)"><path fill="none" stroke="#000000" id="Task_EndOfDayReport?shapeType=BORDER&amp;renderType=STROKE" paint-order="fill stroke markers" d=" M 2 0 L 98 0 L 98 0 A 2 2 0 0 1 100 2 L 100 78 L 100 78 A 2 2 0 0 1 98 80 L 2 80 L 2 80 A 2 2 0 0 1 0 78 L 0 2 L 0 2.0000000000000004 A 2 2 0 0 1 1.9999999999999996 0 Z" stroke-miterlimit="10" stroke-width="1.5" stroke-dasharray=""/></g><g transform="matrix(1,0,0,1,3.46484375,17.5)"><text fill="#000000" stroke="none" font-family="Open Sans" font-size="12pt" font-style="normal" font-weight="normal" text-decoration="normal" x="46.53515625" y="12" text-anchor="middle" dominant-baseline="alphabetic">Báo cáo tồn </text><text fill="#000000" stroke="none" font-family="Open Sans" font-size="12pt" font-style="normal" font-weight="normal" text-decoration="normal" x="46.53515625" y="27" text-anchor="middle" dominant-baseline="alphabetic">   kho cuối    </text><text fill="#000000" stroke="none" font-family="Open Sans" font-size="12pt" font-style="normal" font-weight="normal" text-decoration="normal" x="46.53515625" y="42" text-anchor="middle" dominant-baseline="alphabetic">       ngày       </text></g></g><g transform="matrix(1,0,0,1,120,200)"/><g id="Task_EndInventoryCheck" bpmn2nodeid="Task_EndInventoryCheck" transform="matrix(1,0,0,1,250,200)"><g><path fill="none" stroke="none"/></g><g transform="matrix(1,0,0,1,0,0)"><path fill="#ffffff" stroke="none" id="Task_EndInventoryCheck?shapeType=BACKGROUND" paint-order="stroke fill markers" d=" M 2 0 L 98 0 L 98 0 A 2 2 0 0 1 100 2 L 100 78 L 100 78 A 2 2 0 0 1 98 80 L 2 80 L 2 80 A 2 2 0 0 1 0 78 L 0 2 L 0 2.0000000000000004 A 2 2 0 0 1 1.9999999999999996 0 Z"/></g><g transform="matrix(1,0,0,1,0,0)"><path fill="none" stroke="#000000" id="Task_EndInventoryCheck?shapeType=BORDER&amp;renderType=STROKE" paint-order="fill stroke markers" d=" M 2 0 L 98 0 L 98 0 A 2 2 0 0 1 100 2 L 100 78 L 100 78 A 2 2 0 0 1 98 80 L 2 80 L 2 80 A 2 2 0 0 1 0 78 L 0 2 L 0 2.0000000000000004 A 2 2 0 0 1 1.9999999999999996 0 Z" stroke-miterlimit="10" stroke-width="1.5" stroke-dasharray=""/></g><g transform="matrix(1,0,0,1,19.390625,25)"><text fill="#000000" stroke="none" font-family="Open Sans" font-size="12pt" font-style="normal" font-weight="normal" text-decoration="normal" x="30.609375" y="12" text-anchor="middle" dominant-baseline="alphabetic">Kiểm kê </text><text fill="#000000" stroke="none" font-family="Open Sans" font-size="12pt" font-style="normal" font-weight="normal" text-decoration="normal" x="30.609375" y="27" text-anchor="middle" dominant-baseline="alphabetic"> cuối ca </text></g></g><g transform="matrix(1,0,0,1,250,200)"/><g id="Task_CheckInventoryLevels" bpmn2nodeid="Task_CheckInventoryLevels" transform="matrix(1,0,0,1,550,200)"><g><path fill="none" stroke="none"/></g><g transform="matrix(1,0,0,1,0,0)"><path fill="#ffffff" stroke="none" id="Task_CheckInventoryLevels?shapeType=BACKGROUND" paint-order="stroke fill markers" d=" M 2 0 L 98 0 L 98 0 A 2 2 0 0 1 100 2 L 100 78 L 100 78 A 2 2 0 0 1 98 80 L 2 80 L 2 80 A 2 2 0 0 1 0 78 L 0 2 L 0 2.0000000000000004 A 2 2 0 0 1 1.9999999999999996 0 Z"/></g><g transform="matrix(1,0,0,1,0,0)"><path fill="none" stroke="#000000" id="Task_CheckInventoryLevels?shapeType=BORDER&amp;renderType=STROKE" paint-order="fill stroke markers" d=" M 2 0 L 98 0 L 98 0 A 2 2 0 0 1 100 2 L 100 78 L 100 78 A 2 2 0 0 1 98 80 L 2 80 L 2 80 A 2 2 0 0 1 0 78 L 0 2 L 0 2.0000000000000004 A 2 2 0 0 1 1.9999999999999996 0 Z" stroke-miterlimit="10" stroke-width="1.5" stroke-dasharray=""/></g><g transform="matrix(1,0,0,1,17.35546875,17.5)"><text fill="#000000" stroke="none" font-family="Open Sans" font-size="12pt" font-style="normal" font-weight="normal" text-decoration="normal" x="32.64453125" y="12" text-anchor="middle" dominant-baseline="alphabetic">Kiểm tra </text><text fill="#000000" stroke="none" font-family="Open Sans" font-size="12pt" font-style="normal" font-weight="normal" text-decoration="normal" x="32.64453125" y="27" text-anchor="middle" dominant-baseline="alphabetic">mức tồn </text><text fill="#000000" stroke="none" font-family="Open Sans" font-size="12pt" font-style="normal" font-weight="normal" text-decoration="normal" x="32.64453125" y="42" text-anchor="middle" dominant-baseline="alphabetic">    kho     </text></g></g><g transform="matrix(1,0,0,1,550,200)"/><g id="Task_UpdateWarehouseEntry" bpmn2nodeid="Task_UpdateWarehouseEntry" transform="matrix(1,0,0,1,700,200)"><g><path fill="none" stroke="none"/></g><g transform="matrix(1,0,0,1,0,0)"><path fill="#ffffff" stroke="none" id="Task_UpdateWarehouseEntry?shapeType=BACKGROUND" paint-order="stroke fill markers" d=" M 2 0 L 98 0 L 98 0 A 2 2 0 0 1 100 2 L 100 78 L 100 78 A 2 2 0 0 1 98 80 L 2 80 L 2 80 A 2 2 0 0 1 0 78 L 0 2 L 0 2.0000000000000004 A 2 2 0 0 1 1.9999999999999996 0 Z"/></g><g transform="matrix(1,0,0,1,0,0)"><path fill="none" stroke="#000000" id="Task_UpdateWarehouseEntry?shapeType=BORDER&amp;renderType=STROKE" paint-order="fill stroke markers" d=" M 2 0 L 98 0 L 98 0 A 2 2 0 0 1 100 2 L 100 78 L 100 78 A 2 2 0 0 1 98 80 L 2 80 L 2 80 A 2 2 0 0 1 0 78 L 0 2 L 0 2.0000000000000004 A 2 2 0 0 1 1.9999999999999996 0 Z" stroke-miterlimit="10" stroke-width="1.5" stroke-dasharray=""/></g><g transform="matrix(1,0,0,1,15.70703125,25)"><text fill="#000000" stroke="none" font-family="Open Sans" font-size="12pt" font-style="normal" font-weight="normal" text-decoration="normal" x="34.29296875" y="12" text-anchor="middle" dominant-baseline="alphabetic">Cập nhật </text><text fill="#000000" stroke="none" font-family="Open Sans" font-size="12pt" font-style="normal" font-weight="normal" text-decoration="normal" x="34.29296875" y="27" text-anchor="middle" dominant-baseline="alphabetic">nhập kho</text></g></g><g transform="matrix(1,0,0,1,700,200)"/><g id="Task_ArrangeWarehousePositions" bpmn2nodeid="Task_ArrangeWarehousePositions" transform="matrix(1,0,0,1,850,200)"><g><path fill="none" stroke="none"/></g><g transform="matrix(1,0,0,1,0,0)"><path fill="#ffffff" stroke="none" id="Task_ArrangeWarehousePositions?shapeType=BACKGROUND" paint-order="stroke fill markers" d=" M 2 0 L 98 0 L 98 0 A 2 2 0 0 1 100 2 L 100 78 L 100 78 A 2 2 0 0 1 98 80 L 2 80 L 2 80 A 2 2 0 0 1 0 78 L 0 2 L 0 2.0000000000000004 A 2 2 0 0 1 1.9999999999999996 0 Z"/></g><g transform="matrix(1,0,0,1,0,0)"><path fill="none" stroke="#000000" id="Task_ArrangeWarehousePositions?shapeType=BORDER&amp;renderType=STROKE" paint-order="fill stroke markers" d=" M 2 0 L 98 0 L 98 0 A 2 2 0 0 1 100 2 L 100 78 L 100 78 A 2 2 0 0 1 98 80 L 2 80 L 2 80 A 2 2 0 0 1 0 78 L 0 2 L 0 2.0000000000000004 A 2 2 0 0 1 1.9999999999999996 0 Z" stroke-miterlimit="10" stroke-width="1.5" stroke-dasharray=""/></g><g transform="matrix(1,0,0,1,4.40625,25)"><text fill="#000000" stroke="none" font-family="Open Sans" font-size="12pt" font-style="normal" font-weight="normal" text-decoration="normal" x="45.59375" y="12" text-anchor="middle" dominant-baseline="alphabetic">Sắp xếp vào </text><text fill="#000000" stroke="none" font-family="Open Sans" font-size="12pt" font-style="normal" font-weight="normal" text-decoration="normal" x="45.59375" y="27" text-anchor="middle" dominant-baseline="alphabetic">   vị trí kho   </text></g></g><g transform="matrix(1,0,0,1,850,200)"/><g id="Task_CheckIncomingGoods" bpmn2nodeid="Task_CheckIncomingGoods" transform="matrix(1,0,0,1,1000,200)"><g><path fill="none" stroke="none"/></g><g transform="matrix(1,0,0,1,0,0)"><path fill="#ffffff" stroke="none" id="Task_CheckIncomingGoods?shapeType=BACKGROUND" paint-order="stroke fill markers" d=" M 2 0 L 98 0 L 98 0 A 2 2 0 0 1 100 2 L 100 78 L 100 78 A 2 2 0 0 1 98 80 L 2 80 L 2 80 A 2 2 0 0 1 0 78 L 0 2 L 0 2.0000000000000004 A 2 2 0 0 1 1.9999999999999996 0 Z"/></g><g transform="matrix(1,0,0,1,0,0)"><path fill="none" stroke="#000000" id="Task_CheckIncomingGoods?shapeType=BORDER&amp;renderType=STROKE" paint-order="fill stroke markers" d=" M 2 0 L 98 0 L 98 0 A 2 2 0 0 1 100 2 L 100 78 L 100 78 A 2 2 0 0 1 98 80 L 2 80 L 2 80 A 2 2 0 0 1 0 78 L 0 2 L 0 2.0000000000000004 A 2 2 0 0 1 1.9999999999999996 0 Z" stroke-miterlimit="10" stroke-width="1.5" stroke-dasharray=""/></g><g transform="matrix(1,0,0,1,10.99609375,25)"><text fill="#000000" stroke="none" font-family="Open Sans" font-size="12pt" font-style="normal" font-weight="normal" text-decoration="normal" x="39.00390625" y="12" text-anchor="middle" dominant-baseline="alphabetic"> Kiểm tra   </text><text fill="#000000" stroke="none" font-family="Open Sans" font-size="12pt" font-style="normal" font-weight="normal" text-decoration="normal" x="39.00390625" y="27" text-anchor="middle" dominant-baseline="alphabetic">hàng nhập</text></g></g><g transform="matrix(1,0,0,1,1000,200)"/><g id="Task_ProcessNewEntries" bpmn2nodeid="Task_ProcessNewEntries" transform="matrix(1,0,0,1,1150,200)"><g><path fill="none" stroke="none"/></g><g transform="matrix(1,0,0,1,0,0)"><path fill="#ffffff" stroke="none" id="Task_ProcessNewEntries?shapeType=BACKGROUND" paint-order="stroke fill markers" d=" M 2 0 L 98 0 L 98 0 A 2 2 0 0 1 100 2 L 100 78 L 100 78 A 2 2 0 0 1 98 80 L 2 80 L 2 80 A 2 2 0 0 1 0 78 L 0 2 L 0 2.0000000000000004 A 2 2 0 0 1 1.9999999999999996 0 Z"/></g><g transform="matrix(1,0,0,1,0,0)"><path fill="none" stroke="#000000" id="Task_ProcessNewEntries?shapeType=BORDER&amp;renderType=STROKE" paint-order="fill stroke markers" d=" M 2 0 L 98 0 L 98 0 A 2 2 0 0 1 100 2 L 100 78 L 100 78 A 2 2 0 0 1 98 80 L 2 80 L 2 80 A 2 2 0 0 1 0 78 L 0 2 L 0 2.0000000000000004 A 2 2 0 0 1 1.9999999999999996 0 Z" stroke-miterlimit="10" stroke-width="1.5" stroke-dasharray=""/></g><g transform="matrix(1,0,0,1,10.328125,25)"><text fill="#000000" stroke="none" font-family="Open Sans" font-size="12pt" font-style="normal" font-weight="normal" text-decoration="normal" x="39.671875" y="12" text-anchor="middle" dominant-baseline="alphabetic">Xử lý nhập </text><text fill="#000000" stroke="none" font-family="Open Sans" font-size="12pt" font-style="normal" font-weight="normal" text-decoration="normal" x="39.671875" y="27" text-anchor="middle" dominant-baseline="alphabetic">  kho mới  </text></g></g><g transform="matrix(1,0,0,1,1150,200)"/><g id="Task_UpdateWarehouseExit" bpmn2nodeid="Task_UpdateWarehouseExit" transform="matrix(1,0,0,1,1150,60)"><g><path fill="none" stroke="none"/></g><g transform="matrix(1,0,0,1,0,0)"><path fill="#ffffff" stroke="none" id="Task_UpdateWarehouseExit?shapeType=BACKGROUND" paint-order="stroke fill markers" d=" M 2 0 L 98 0 L 98 0 A 2 2 0 0 1 100 2 L 100 78 L 100 78 A 2 2 0 0 1 98 80 L 2 80 L 2 80 A 2 2 0 0 1 0 78 L 0 2 L 0 2.0000000000000004 A 2 2 0 0 1 1.9999999999999996 0 Z"/></g><g transform="matrix(1,0,0,1,0,0)"><path fill="none" stroke="#000000" id="Task_UpdateWarehouseExit?shapeType=BORDER&amp;renderType=STROKE" paint-order="fill stroke markers" d=" M 2 0 L 98 0 L 98 0 A 2 2 0 0 1 100 2 L 100 78 L 100 78 A 2 2 0 0 1 98 80 L 2 80 L 2 80 A 2 2 0 0 1 0 78 L 0 2 L 0 2.0000000000000004 A 2 2 0 0 1 1.9999999999999996 0 Z" stroke-miterlimit="10" stroke-width="1.5" stroke-dasharray=""/></g><g transform="matrix(1,0,0,1,16.1484375,25)"><text fill="#000000" stroke="none" font-family="Open Sans" font-size="12pt" font-style="normal" font-weight="normal" text-decoration="normal" x="33.8515625" y="12" text-anchor="middle" dominant-baseline="alphabetic">Cập nhật </text><text fill="#000000" stroke="none" font-family="Open Sans" font-size="12pt" font-style="normal" font-weight="normal" text-decoration="normal" x="33.8515625" y="27" text-anchor="middle" dominant-baseline="alphabetic">xuất kho </text></g></g><g transform="matrix(1,0,0,1,1150,60)"/><g id="Task_PackingAndHandover" bpmn2nodeid="Task_PackingAndHandover" transform="matrix(1,0,0,1,1000,60)"><g><path fill="none" stroke="none"/></g><g transform="matrix(1,0,0,1,0,0)"><path fill="#ffffff" stroke="none" id="Task_PackingAndHandover?shapeType=BACKGROUND" paint-order="stroke fill markers" d=" M 2 0 L 98 0 L 98 0 A 2 2 0 0 1 100 2 L 100 78 L 100 78 A 2 2 0 0 1 98 80 L 2 80 L 2 80 A 2 2 0 0 1 0 78 L 0 2 L 0 2.0000000000000004 A 2 2 0 0 1 1.9999999999999996 0 Z"/></g><g transform="matrix(1,0,0,1,0,0)"><path fill="none" stroke="#000000" id="Task_PackingAndHandover?shapeType=BORDER&amp;renderType=STROKE" paint-order="fill stroke markers" d=" M 2 0 L 98 0 L 98 0 A 2 2 0 0 1 100 2 L 100 78 L 100 78 A 2 2 0 0 1 98 80 L 2 80 L 2 80 A 2 2 0 0 1 0 78 L 0 2 L 0 2.0000000000000004 A 2 2 0 0 1 1.9999999999999996 0 Z" stroke-miterlimit="10" stroke-width="1.5" stroke-dasharray=""/></g><g transform="matrix(1,0,0,1,4.16796875,17.5)"><text fill="#000000" stroke="none" font-family="Open Sans" font-size="12pt" font-style="normal" font-weight="normal" text-decoration="normal" x="45.83203125" y="12" text-anchor="middle" dominant-baseline="alphabetic">Đóng gói và </text><text fill="#000000" stroke="none" font-family="Open Sans" font-size="12pt" font-style="normal" font-weight="normal" text-decoration="normal" x="45.83203125" y="27" text-anchor="middle" dominant-baseline="alphabetic">   giao cho    </text><text fill="#000000" stroke="none" font-family="Open Sans" font-size="12pt" font-style="normal" font-weight="normal" text-decoration="normal" x="45.83203125" y="42" text-anchor="middle" dominant-baseline="alphabetic">     vận tải      </text></g></g><g transform="matrix(1,0,0,1,1000,60)"/><g id="Task_QualityCheckOutgoing" bpmn2nodeid="Task_QualityCheckOutgoing" transform="matrix(1,0,0,1,850,60)"><g><path fill="none" stroke="none"/></g><g transform="matrix(1,0,0,1,0,0)"><path fill="#ffffff" stroke="none" id="Task_QualityCheckOutgoing?shapeType=BACKGROUND" paint-order="stroke fill markers" d=" M 2 0 L 98 0 L 98 0 A 2 2 0 0 1 100 2 L 100 78 L 100 78 A 2 2 0 0 1 98 80 L 2 80 L 2 80 A 2 2 0 0 1 0 78 L 0 2 L 0 2.0000000000000004 A 2 2 0 0 1 1.9999999999999996 0 Z"/></g><g transform="matrix(1,0,0,1,0,0)"><path fill="none" stroke="#000000" id="Task_QualityCheckOutgoing?shapeType=BORDER&amp;renderType=STROKE" paint-order="fill stroke markers" d=" M 2 0 L 98 0 L 98 0 A 2 2 0 0 1 100 2 L 100 78 L 100 78 A 2 2 0 0 1 98 80 L 2 80 L 2 80 A 2 2 0 0 1 0 78 L 0 2 L 0 2.0000000000000004 A 2 2 0 0 1 1.9999999999999996 0 Z" stroke-miterlimit="10" stroke-width="1.5" stroke-dasharray=""/></g><g transform="matrix(1,0,0,1,9.12109375,17.5)"><text fill="#000000" stroke="none" font-family="Open Sans" font-size="12pt" font-style="normal" font-weight="normal" text-decoration="normal" x="40.87890625" y="12" text-anchor="middle" dominant-baseline="alphabetic">  Kiểm tra   </text><text fill="#000000" stroke="none" font-family="Open Sans" font-size="12pt" font-style="normal" font-weight="normal" text-decoration="normal" x="40.87890625" y="27" text-anchor="middle" dominant-baseline="alphabetic">chất lượng </text><text fill="#000000" stroke="none" font-family="Open Sans" font-size="12pt" font-style="normal" font-weight="normal" text-decoration="normal" x="40.87890625" y="42" text-anchor="middle" dominant-baseline="alphabetic"> hàng xuất </text></g></g><g transform="matrix(1,0,0,1,850,60)"/><g id="Task_PrepareGoods" bpmn2nodeid="Task_PrepareGoods" transform="matrix(1,0,0,1,700,60)"><g><path fill="none" stroke="none"/></g><g transform="matrix(1,0,0,1,0,0)"><path fill="#ffffff" stroke="none" id="Task_PrepareGoods?shapeType=BACKGROUND" paint-order="stroke fill markers" d=" M 2 0 L 98 0 L 98 0 A 2 2 0 0 1 100 2 L 100 78 L 100 78 A 2 2 0 0 1 98 80 L 2 80 L 2 80 A 2 2 0 0 1 0 78 L 0 2 L 0 2.0000000000000004 A 2 2 0 0 1 1.9999999999999996 0 Z"/></g><g transform="matrix(1,0,0,1,0,0)"><path fill="none" stroke="#000000" id="Task_PrepareGoods?shapeType=BORDER&amp;renderType=STROKE" paint-order="fill stroke markers" d=" M 2 0 L 98 0 L 98 0 A 2 2 0 0 1 100 2 L 100 78 L 100 78 A 2 2 0 0 1 98 80 L 2 80 L 2 80 A 2 2 0 0 1 0 78 L 0 2 L 0 2.0000000000000004 A 2 2 0 0 1 1.9999999999999996 0 Z" stroke-miterlimit="10" stroke-width="1.5" stroke-dasharray=""/></g><g transform="matrix(1,0,0,1,10.13671875,17.5)"><text fill="#000000" stroke="none" font-family="Open Sans" font-size="12pt" font-style="normal" font-weight="normal" text-decoration="normal" x="39.86328125" y="12" text-anchor="middle" dominant-baseline="alphabetic"> Chuẩn bị   </text><text fill="#000000" stroke="none" font-family="Open Sans" font-size="12pt" font-style="normal" font-weight="normal" text-decoration="normal" x="39.86328125" y="27" text-anchor="middle" dominant-baseline="alphabetic">hàng theo </text><text fill="#000000" stroke="none" font-family="Open Sans" font-size="12pt" font-style="normal" font-weight="normal" text-decoration="normal" x="39.86328125" y="42" text-anchor="middle" dominant-baseline="alphabetic">      đơn       </text></g></g><g transform="matrix(1,0,0,1,700,60)"/><g id="Task_ProcessExitSlips" bpmn2nodeid="Task_ProcessExitSlips" transform="matrix(1,0,0,1,550,60)"><g><path fill="none" stroke="none"/></g><g transform="matrix(1,0,0,1,0,0)"><path fill="#ffffff" stroke="none" id="Task_ProcessExitSlips?shapeType=BACKGROUND" paint-order="stroke fill markers" d=" M 2 0 L 98 0 L 98 0 A 2 2 0 0 1 100 2 L 100 78 L 100 78 A 2 2 0 0 1 98 80 L 2 80 L 2 80 A 2 2 0 0 1 0 78 L 0 2 L 0 2.0000000000000004 A 2 2 0 0 1 1.9999999999999996 0 Z"/></g><g transform="matrix(1,0,0,1,0,0)"><path fill="none" stroke="#000000" id="Task_ProcessExitSlips?shapeType=BORDER&amp;renderType=STROKE" paint-order="fill stroke markers" d=" M 2 0 L 98 0 L 98 0 A 2 2 0 0 1 100 2 L 100 78 L 100 78 A 2 2 0 0 1 98 80 L 2 80 L 2 80 A 2 2 0 0 1 0 78 L 0 2 L 0 2.0000000000000004 A 2 2 0 0 1 1.9999999999999996 0 Z" stroke-miterlimit="10" stroke-width="1.5" stroke-dasharray=""/></g><g transform="matrix(1,0,0,1,7.72265625,25)"><text fill="#000000" stroke="none" font-family="Open Sans" font-size="12pt" font-style="normal" font-weight="normal" text-decoration="normal" x="42.27734375" y="12" text-anchor="middle" dominant-baseline="alphabetic">Xử lý phiếu </text><text fill="#000000" stroke="none" font-family="Open Sans" font-size="12pt" font-style="normal" font-weight="normal" text-decoration="normal" x="42.27734375" y="27" text-anchor="middle" dominant-baseline="alphabetic">  xuất kho   </text></g></g><g transform="matrix(1,0,0,1,550,60)"/><g id="Task_UpdateInventorySystem" bpmn2nodeid="Task_UpdateInventorySystem" transform="matrix(1,0,0,1,400,60)"><g><path fill="none" stroke="none"/></g><g transform="matrix(1,0,0,1,0,0)"><path fill="#ffffff" stroke="none" id="Task_UpdateInventorySystem?shapeType=BACKGROUND" paint-order="stroke fill markers" d=" M 2 0 L 98 0 L 98 0 A 2 2 0 0 1 100 2 L 100 78 L 100 78 A 2 2 0 0 1 98 80 L 2 80 L 2 80 A 2 2 0 0 1 0 78 L 0 2 L 0 2.0000000000000004 A 2 2 0 0 1 1.9999999999999996 0 Z"/></g><g transform="matrix(1,0,0,1,0,0)"><path fill="none" stroke="#000000" id="Task_UpdateInventorySystem?shapeType=BORDER&amp;renderType=STROKE" paint-order="fill stroke markers" d=" M 2 0 L 98 0 L 98 0 A 2 2 0 0 1 100 2 L 100 78 L 100 78 A 2 2 0 0 1 98 80 L 2 80 L 2 80 A 2 2 0 0 1 0 78 L 0 2 L 0 2.0000000000000004 A 2 2 0 0 1 1.9999999999999996 0 Z" stroke-miterlimit="10" stroke-width="1.5" stroke-dasharray=""/></g><g transform="matrix(1,0,0,1,3.7890625,17.5)"><text fill="#000000" stroke="none" font-family="Open Sans" font-size="12pt" font-style="normal" font-weight="normal" text-decoration="normal" x="46.2109375" y="12" text-anchor="middle" dominant-baseline="alphabetic">   Cập nhật    </text><text fill="#000000" stroke="none" font-family="Open Sans" font-size="12pt" font-style="normal" font-weight="normal" text-decoration="normal" x="46.2109375" y="27" text-anchor="middle" dominant-baseline="alphabetic">tồn kho vào </text><text fill="#000000" stroke="none" font-family="Open Sans" font-size="12pt" font-style="normal" font-weight="normal" text-decoration="normal" x="46.2109375" y="42" text-anchor="middle" dominant-baseline="alphabetic">   hệ thống    </text></g></g><g transform="matrix(1,0,0,1,400,60)"/><g id="Task_BeginningInventoryCheck" bpmn2nodeid="Task_BeginningInventoryCheck" transform="matrix(1,0,0,1,250,60)"><g><path fill="none" stroke="none"/></g><g transform="matrix(1,0,0,1,0,0)"><path fill="#ffffff" stroke="none" id="Task_BeginningInventoryCheck?shapeType=BACKGROUND" paint-order="stroke fill markers" d=" M 2 0 L 98 0 L 98 0 A 2 2 0 0 1 100 2 L 100 78 L 100 78 A 2 2 0 0 1 98 80 L 2 80 L 2 80 A 2 2 0 0 1 0 78 L 0 2 L 0 2.0000000000000004 A 2 2 0 0 1 1.9999999999999996 0 Z"/></g><g transform="matrix(1,0,0,1,0,0)"><path fill="none" stroke="#000000" id="Task_BeginningInventoryCheck?shapeType=BORDER&amp;renderType=STROKE" paint-order="fill stroke markers" d=" M 2 0 L 98 0 L 98 0 A 2 2 0 0 1 100 2 L 100 78 L 100 78 A 2 2 0 0 1 98 80 L 2 80 L 2 80 A 2 2 0 0 1 0 78 L 0 2 L 0 2.0000000000000004 A 2 2 0 0 1 1.9999999999999996 0 Z" stroke-miterlimit="10" stroke-width="1.5" stroke-dasharray=""/></g><g transform="matrix(1,0,0,1,4.38671875,25)"><text fill="#000000" stroke="none" font-family="Open Sans" font-size="12pt" font-style="normal" font-weight="normal" text-decoration="normal" x="45.61328125" y="12" text-anchor="middle" dominant-baseline="alphabetic">Kiểm kê đầu </text><text fill="#000000" stroke="none" font-family="Open Sans" font-size="12pt" font-style="normal" font-weight="normal" text-decoration="normal" x="45.61328125" y="27" text-anchor="middle" dominant-baseline="alphabetic">         ca         </text></g></g><g transform="matrix(1,0,0,1,250,60)"/><g id="Flow_InventoryToUpdate" bpmn2nodeid="Flow_InventoryToUpdate"><g><path fill="none" stroke="#000000" paint-order="fill stroke markers" d=" M 350 100 L 385 100" stroke-miterlimit="10" stroke-dasharray=""/></g><g transform="matrix(1,0,0,1,350,100)"/><g transform="matrix(6.123233995736766e-17,1,-1,6.123233995736766e-17,400,95)"><path fill="#000000" stroke="#000000" paint-order="fill stroke markers" d=" M 10 15 L 0 15 L 5 0 Z" stroke-miterlimit="10" stroke-dasharray=""/></g><g transform="matrix(1,0,0,1,350,90)"/></g><g id="Flow_UpdateToProcessExit" bpmn2nodeid="Flow_UpdateToProcessExit"><g><path fill="none" stroke="#000000" paint-order="fill stroke markers" d=" M 500 100 L 535 100" stroke-miterlimit="10" stroke-dasharray=""/></g><g transform="matrix(1,0,0,1,500,100)"/><g transform="matrix(6.123233995736766e-17,1,-1,6.123233995736766e-17,550,95)"><path fill="#000000" stroke="#000000" paint-order="fill stroke markers" d=" M 10 15 L 0 15 L 5 0 Z" stroke-miterlimit="10" stroke-dasharray=""/></g><g transform="matrix(1,0,0,1,500,90)"/></g><g id="Flow_ExitSlipsToPrepareGoods" bpmn2nodeid="Flow_ExitSlipsToPrepareGoods"><g><path fill="none" stroke="#000000" paint-order="fill stroke markers" d=" M 650 100 L 685 100" stroke-miterlimit="10" stroke-dasharray=""/></g><g transform="matrix(1,0,0,1,650,100)"/><g transform="matrix(6.123233995736766e-17,1,-1,6.123233995736766e-17,700,95)"><path fill="#000000" stroke="#000000" paint-order="fill stroke markers" d=" M 10 15 L 0 15 L 5 0 Z" stroke-miterlimit="10" stroke-dasharray=""/></g><g transform="matrix(1,0,0,1,650,90)"/></g><g id="Flow_PrepareToQualityCheck" bpmn2nodeid="Flow_PrepareToQualityCheck"><g><path fill="none" stroke="#000000" paint-order="fill stroke markers" d=" M 800 100 L 835 100" stroke-miterlimit="10" stroke-dasharray=""/></g><g transform="matrix(1,0,0,1,800,100)"/><g transform="matrix(6.123233995736766e-17,1,-1,6.123233995736766e-17,850,95)"><path fill="#000000" stroke="#000000" paint-order="fill stroke markers" d=" M 10 15 L 0 15 L 5 0 Z" stroke-miterlimit="10" stroke-dasharray=""/></g><g transform="matrix(1,0,0,1,800,90)"/></g><g id="Flow_QualityCheckToPacking" bpmn2nodeid="Flow_QualityCheckToPacking"><g><path fill="none" stroke="#000000" paint-order="fill stroke markers" d=" M 950 100 L 985 100" stroke-miterlimit="10" stroke-dasharray=""/></g><g transform="matrix(1,0,0,1,950,100)"/><g transform="matrix(6.123233995736766e-17,1,-1,6.123233995736766e-17,1000,95)"><path fill="#000000" stroke="#000000" paint-order="fill stroke markers" d=" M 10 15 L 0 15 L 5 0 Z" stroke-miterlimit="10" stroke-dasharray=""/></g><g transform="matrix(1,0,0,1,950,90)"/></g><g id="Flow_PackingToUpdateExit" bpmn2nodeid="Flow_PackingToUpdateExit"><g><path fill="none" stroke="#000000" paint-order="fill stroke markers" d=" M 1100 100 L 1135 100" stroke-miterlimit="10" stroke-dasharray=""/></g><g transform="matrix(1,0,0,1,1100,100)"/><g transform="matrix(6.123233995736766e-17,1,-1,6.123233995736766e-17,1150,95)"><path fill="#000000" stroke="#000000" paint-order="fill stroke markers" d=" M 10 15 L 0 15 L 5 0 Z" stroke-miterlimit="10" stroke-dasharray=""/></g><g transform="matrix(1,0,0,1,1100,90)"/></g><g id="Flow_UpdateExitToProcessEntry" bpmn2nodeid="Flow_UpdateExitToProcessEntry"><g><path fill="none" stroke="#000000" paint-order="fill stroke markers" d=" M 1200 140 L 1200 185" stroke-miterlimit="10" stroke-dasharray=""/></g><g transform="matrix(1,0,0,1,1200,140)"/><g transform="matrix(-1,1.2246467991473532e-16,-1.2246467991473532e-16,-1,1205,200)"><path fill="#000000" stroke="#000000" paint-order="fill stroke markers" d=" M 10 15 L 0 15 L 5 0 Z" stroke-miterlimit="10" stroke-dasharray=""/></g><g transform="matrix(1,0,0,1,1210,170)"/></g><g id="Flow_ProcessEntryToCheckIncoming" bpmn2nodeid="Flow_ProcessEntryToCheckIncoming"><g><path fill="none" stroke="#000000" paint-order="fill stroke markers" d=" M 1150 240 L 1115 240" stroke-miterlimit="10" stroke-dasharray=""/></g><g transform="matrix(1,0,0,1,1150,240)"/><g transform="matrix(-1.8369701987210297e-16,-1,1,-1.8369701987210297e-16,1100,245)"><path fill="#000000" stroke="#000000" paint-order="fill stroke markers" d=" M 10 15 L 0 15 L 5 0 Z" stroke-miterlimit="10" stroke-dasharray=""/></g><g transform="matrix(1,0,0,1,1100,230)"/></g><g id="Flow_CheckIncomingToArrange" bpmn2nodeid="Flow_CheckIncomingToArrange"><g><path fill="none" stroke="#000000" paint-order="fill stroke markers" d=" M 1000 240 L 965 240" stroke-miterlimit="10" stroke-dasharray=""/></g><g transform="matrix(1,0,0,1,1000,240)"/><g transform="matrix(-1.8369701987210297e-16,-1,1,-1.8369701987210297e-16,950,245)"><path fill="#000000" stroke="#000000" paint-order="fill stroke markers" d=" M 10 15 L 0 15 L 5 0 Z" stroke-miterlimit="10" stroke-dasharray=""/></g><g transform="matrix(1,0,0,1,950,230)"/></g><g id="Flow_ArrangeToUpdateEntry" bpmn2nodeid="Flow_ArrangeToUpdateEntry"><g><path fill="none" stroke="#000000" paint-order="fill stroke markers" d=" M 850 240 L 815 240" stroke-miterlimit="10" stroke-dasharray=""/></g><g transform="matrix(1,0,0,1,850,240)"/><g transform="matrix(-1.8369701987210297e-16,-1,1,-1.8369701987210297e-16,800,245)"><path fill="#000000" stroke="#000000" paint-order="fill stroke markers" d=" M 10 15 L 0 15 L 5 0 Z" stroke-miterlimit="10" stroke-dasharray=""/></g><g transform="matrix(1,0,0,1,800,230)"/></g><g id="Flow_UpdateEntryToCheckLevels" bpmn2nodeid="Flow_UpdateEntryToCheckLevels"><g><path fill="none" stroke="#000000" paint-order="fill stroke markers" d=" M 700 240 L 665 240" stroke-miterlimit="10" stroke-dasharray=""/></g><g transform="matrix(1,0,0,1,700,240)"/><g transform="matrix(-1.8369701987210297e-16,-1,1,-1.8369701987210297e-16,650,245)"><path fill="#000000" stroke="#000000" paint-order="fill stroke markers" d=" M 10 15 L 0 15 L 5 0 Z" stroke-miterlimit="10" stroke-dasharray=""/></g><g transform="matrix(1,0,0,1,650,230)"/></g><g id="Flow_1jn64kn" bpmn2nodeid="Flow_1jn64kn"><g><path fill="none" stroke="#000000" paint-order="fill stroke markers" d=" M 250 240 L 235 240" stroke-miterlimit="10" stroke-dasharray=""/></g><g transform="matrix(1,0,0,1,250,240)"/><g transform="matrix(-1.8369701987210297e-16,-1,1,-1.8369701987210297e-16,220,245)"><path fill="#000000" stroke="#000000" paint-order="fill stroke markers" d=" M 10 15 L 0 15 L 5 0 Z" stroke-miterlimit="10" stroke-dasharray=""/></g><g transform="matrix(1,0,0,1,220,230)"/></g><g id="EndEvent_CompleteWorkShift" bpmn2nodeid="EndEvent_CompleteWorkShift" transform="matrix(1,0,0,1,142,371)"><g><path fill="none" stroke="none"/></g><g transform="matrix(0.125,0,0,0.125,0,0)"><g transform="matrix(1,0,0,1,0,0)"><path fill="#fce7e7" stroke="black" id="EndEvent_CompleteWorkShift?shapeType=BACKGROUND" paint-order="fill stroke markers" d=" M 0 0 M 444 224 C 444 263.9 434.2 300.8 414.4 334.5 C 394.7 368.2 368 394.9 334.4 414.5 C 300.79999999999995 434.1 263.9 444 224 444 C 184.10000000000002 444 147.2 434.2 113.5 414.4 C 79.8 394.7 53.1 368 33.5 334.4 C 13.899999999999999 300.79999999999995 4 263.9 4 224 C 4 184.10000000000002 13.8 147.2 33.6 113.5 C 53.400000000000006 79.80000000000001 80.1 53.1 113.6 33.5 C 147.1 13.899999999999999 184.1 4 224 4 C 263.9 4 300.8 13.8 334.5 33.6 C 368.2 53.400000000000006 394.9 80.1 414.5 113.6 C 434.1 147.1 444 184.1 444 224 Z" stroke-miterlimit="10" stroke-dasharray=""/></g><g><g transform="matrix(1,0,0,1,0,0)"><g transform="matrix(1,0,0,1,0,0)"><path fill="rgb(163,0,0)" stroke="black" id="EndEvent_CompleteWorkShift?shapeType=BORDER&amp;renderType=FILL" paint-order="fill stroke markers" d=" M 0 0 M 224 0 C 100.3 0 0 100.3 0 224 C 0 347.7 100.3 448 224 448 C 347.7 448 448 347.7 448 224 C 448 100.30000000000001 347.7 0 224 0 Z M 0 0 M 224 400 C 126.8 400 48 321.2 48 224 C 48 126.80000000000001 126.8 48 224 48 C 321.2 48 400 126.8 400 224 C 400 321.2 321.2 400 224 400 Z" stroke-miterlimit="10" stroke-dasharray=""/></g></g></g></g><g transform="matrix(1,0,0,1,-57.97265625,61)"><text fill="#000000" stroke="none" font-family="Open Sans" font-size="12pt" font-style="normal" font-weight="normal" text-decoration="normal" x="85.97265625" y="12" text-anchor="middle" dominant-baseline="alphabetic">Hoàn thành ca làm việc</text></g></g><g id="Flow_1eskado" bpmn2nodeid="Flow_1eskado"><g><path fill="none" stroke="#000000" paint-order="fill stroke markers" d=" M 170 280 L 170 356" stroke-miterlimit="10" stroke-dasharray=""/></g><g transform="matrix(1,0,0,1,170,280)"/><g transform="matrix(-1,1.2246467991473532e-16,-1.2246467991473532e-16,-1,175,371)"><path fill="#000000" stroke="#000000" paint-order="fill stroke markers" d=" M 10 15 L 0 15 L 5 0 Z" stroke-miterlimit="10" stroke-dasharray=""/></g><g transform="matrix(1,0,0,1,180,325.5)"/></g><g transform="matrix(1,0,0,1,142,371)"/><g id="StartEvent_BeginWorkDay" bpmn2nodeid="StartEvent_BeginWorkDay" transform="matrix(1,0,0,1,144,72)"><g><path fill="none" stroke="none"/></g><g transform="matrix(0.125,0,0,0.125,0,0)"><g transform="matrix(1,0,0,1,0,0)"><path fill="#e8fae6" stroke="black" id="StartEvent_BeginWorkDay?shapeType=BACKGROUND" paint-order="fill stroke markers" d=" M 0 0 M 444 224 C 444 263.9 434.2 300.8 414.4 334.5 C 394.7 368.2 368 394.9 334.4 414.5 C 300.79999999999995 434.1 263.9 444 224 444 C 184.10000000000002 444 147.2 434.2 113.5 414.4 C 79.8 394.7 53.1 368 33.5 334.4 C 13.899999999999999 300.79999999999995 4 263.9 4 224 C 4 184.10000000000002 13.8 147.2 33.6 113.5 C 53.400000000000006 79.80000000000001 80.1 53.1 113.6 33.5 C 147.1 13.899999999999999 184.1 4 224 4 C 263.9 4 300.8 13.8 334.5 33.6 C 368.2 53.400000000000006 394.9 80.1 414.5 113.6 C 434.1 147.1 444 184.1 444 224 Z" stroke-miterlimit="10" stroke-dasharray=""/></g><g><g transform="matrix(1,0,0,1,0,0)"><g transform="matrix(1,0,0,1,0,0)"><path fill="rgb(74,162,65)" stroke="black" id="StartEvent_BeginWorkDay?shapeType=BORDER&amp;renderType=FILL" paint-order="fill stroke markers" d=" M 0 0 M 224 0 C 100.3 0 0 100.3 0 224 C 0 347.7 100.3 448 224 448 C 347.7 448 448 347.7 448 224 C 448 100.30000000000001 347.7 0 224 0 Z M 0 0 M 224 432 C 109.1 432 16 338.9 16 224 C 16 109.10000000000002 109.1 16 224 16 C 338.9 16 432 109.1 432 224 C 432 338.9 338.9 432 224 432 Z" stroke-miterlimit="10" stroke-dasharray=""/></g></g></g></g><g transform="matrix(1,0,0,1,-49.875,61)"><text fill="#000000" stroke="none" font-family="Open Sans" font-size="12pt" font-style="normal" font-weight="normal" text-decoration="normal" x="77.875" y="12" text-anchor="middle" dominant-baseline="alphabetic">Bắt đầu ngày làm việc</text></g></g><g id="Flow_StartToInventoryCheck" bpmn2nodeid="Flow_StartToInventoryCheck"><g><path fill="none" stroke="#000000" paint-order="fill stroke markers" d=" M 200 100 L 235 100" stroke-miterlimit="10" stroke-dasharray=""/></g><g transform="matrix(1,0,0,1,200,100)"/><g transform="matrix(6.123233995736766e-17,1,-1,6.123233995736766e-17,250,95)"><path fill="#000000" stroke="#000000" paint-order="fill stroke markers" d=" M 10 15 L 0 15 L 5 0 Z" stroke-miterlimit="10" stroke-dasharray=""/></g><g transform="matrix(1,0,0,1,200,90)"/></g><g transform="matrix(1,0,0,1,144,72)"/><g id="Gateway_BelowMinimumLevel" bpmn2nodeid="Gateway_BelowMinimumLevel" transform="matrix(1,0,0,1,421,212)"><g><path fill="none" stroke="none"/></g><g transform="matrix(0.125,0,0,0.125,0,0)"><g transform="matrix(1,0,0,1,0,0)"><path fill="#fef4ea" stroke="black" id="Gateway_BelowMinimumLevel?shapeType=BACKGROUND" paint-order="fill stroke markers" d=" M 0 0 M 224.4 4.3 C 216.4 4.3 208.4 7.3 202.3 13.399999999999999 L 13.5 202.2 C 1.3000000000000007 214.39999999999998 1.3000000000000007 234.2 13.5 246.39999999999998 L 202.2 435.09999999999997 C 208.29999999999998 441.2 216.39999999999998 444.2 224.29999999999998 444.2 C 232.2 444.2 240.29999999999998 441.2 246.39999999999998 435.09999999999997 L 435.09999999999997 246.39999999999998 C 447.29999999999995 234.2 447.29999999999995 214.39999999999998 435.09999999999997 202.2 L 246.5 13.4 C 240.4 7.3 232.4 4.3 224.4 4.3 L 224.4 4.3 Z" stroke-miterlimit="10" stroke-dasharray=""/></g><g><g transform="matrix(1,0,0,1,0,0)"><g transform="matrix(1,0,0,1,0,0)"><path fill="rgb(236,122,8)" stroke="black" id="Gateway_BelowMinimumLevel?shapeType=BORDER&amp;renderType=FILL" paint-order="fill stroke markers" d=" M 0 0 M 20.8 212.7 L 213.3 20.2 C 219.60000000000002 13.899999999999999 229.70000000000002 13.899999999999999 235.9 20.2 L 428.4 212.7 C 434.7 219 434.7 229.1 428.4 235.29999999999998 L 235.9 427.8 C 229.6 434.1 219.5 434.1 213.3 427.8 L 20.8 235.3 C 14.5 229.1 14.5 218.9 20.8 212.7 L 20.8 212.7 Z M 0 0 M 0 224 C 0 232.1 3.1 240.3 9.3 246.5 L 201.5 438.7 C 213.9 451.09999999999997 234.1 451.09999999999997 246.5 438.7 L 438.7 246.5 C 444.9 240.3 448 232.1 448 224 C 448 215.9 444.9 207.7 438.7 201.5 L 246.5 9.3 C 234.1 -3.0999999999999996 213.9 -3.0999999999999996 201.5 9.3 L 9.3 201.5 C 3.1 207.7 0 215.9 0 224 L 0 224 Z" stroke-miterlimit="10" stroke-dasharray=""/></g></g></g><g><g transform="matrix(1,0,0,1,0,0)"><g transform="matrix(1,0,0,1,0,0)"><path fill="#ec7a08" stroke="black" id="Gateway_BelowMinimumLevel_exclusive" paint-order="fill stroke markers" d=" M 0 0 M 298.2 269.2 C 298.2 272.59999999999997 297.09999999999997 275.3 294.7 277.7 L 277.7 294.7 C 275.3 297.09999999999997 272.59999999999997 298.2 269.2 298.2 C 265.8 298.2 263.09999999999997 297.09999999999997 260.7 294.7 L 224 258 L 187.2 294.8 C 184.79999999999998 297.2 182.1 298.3 178.7 298.3 C 175.29999999999998 298.3 172.6 297.2 170.2 294.8 L 153.2 277.8 C 150.79999999999998 275.40000000000003 149.7 272.7 149.7 269.3 C 149.7 265.90000000000003 150.79999999999998 263.2 153.2 260.8 L 190 224 L 153.2 187.2 C 150.79999999999998 184.79999999999998 149.7 182 149.7 178.7 C 149.7 175.29999999999998 150.79999999999998 172.5 153.2 170.2 L 170.2 153.2 C 172.6 150.79999999999998 175.29999999999998 149.7 178.7 149.7 C 182.1 149.7 184.79999999999998 150.79999999999998 187.2 153.2 L 224 190 L 260.8 153.2 C 263.2 150.79999999999998 265.90000000000003 149.7 269.3 149.7 C 272.7 149.7 275.40000000000003 150.79999999999998 277.8 153.2 L 294.8 170.2 C 297.2 172.5 298.3 175.29999999999998 298.3 178.7 C 298.3 182 297.2 184.79999999999998 294.8 187.2 L 258 224 L 294.8 260.8 C 297.1 263.1 298.2 265.9 298.2 269.2 Z" stroke-miterlimit="10" stroke-dasharray=""/></g></g></g></g><g transform="matrix(1,0,0,1,-74.07421875,61)"><text fill="#000000" stroke="none" font-family="Open Sans" font-size="12pt" font-style="normal" font-weight="normal" text-decoration="normal" x="102.07421875" y="12" text-anchor="middle" dominant-baseline="alphabetic">Có hàng dưới mức tối thiểu?</text></g></g><g id="Flow_CheckLevelsToGateway" bpmn2nodeid="Flow_CheckLevelsToGateway"><g><path fill="none" stroke="#000000" paint-order="fill stroke markers" d=" M 550 240 L 492 240" stroke-miterlimit="10" stroke-dasharray=""/></g><g transform="matrix(1,0,0,1,550,240)"/><g transform="matrix(-1.8369701987210297e-16,-1,1,-1.8369701987210297e-16,477,245)"><path fill="#000000" stroke="#000000" paint-order="fill stroke markers" d=" M 10 15 L 0 15 L 5 0 Z" stroke-miterlimit="10" stroke-dasharray=""/></g><g transform="matrix(1,0,0,1,477,230)"/></g><g id="Flow_GatewayToEndInventoryCheck" bpmn2nodeid="Flow_GatewayToEndInventoryCheck"><g><path fill="none" stroke="#000000" paint-order="fill stroke markers" d=" M 421 240 L 365 240" stroke-miterlimit="10" stroke-dasharray=""/></g><g transform="matrix(1,0,0,1,421,240)"/><g transform="matrix(-1.8369701987210297e-16,-1,1,-1.8369701987210297e-16,350,245)"><path fill="#000000" stroke="#000000" paint-order="fill stroke markers" d=" M 10 15 L 0 15 L 5 0 Z" stroke-miterlimit="10" stroke-dasharray=""/></g><g transform="matrix(1,0,0,1,350,217)"><text fill="#000000" stroke="none" font-family="Open Sans" font-size="10pt" font-style="normal" font-weight="normal" text-decoration="normal" x="0" y="10.4" text-anchor="start" dominant-baseline="alphabetic">Không         </text></g></g><g transform="matrix(1,0,0,1,421,212)"/><g id="Task_NotifyPurchasing" bpmn2nodeid="Task_NotifyPurchasing" transform="matrix(1,0,0,1,399,340)"><g><path fill="none" stroke="none"/></g><g transform="matrix(1,0,0,1,0,0)"><path fill="#ffffff" stroke="none" id="Task_NotifyPurchasing?shapeType=BACKGROUND" paint-order="stroke fill markers" d=" M 2 0 L 98 0 L 98 0 A 2 2 0 0 1 100 2 L 100 78 L 100 78 A 2 2 0 0 1 98 80 L 2 80 L 2 80 A 2 2 0 0 1 0 78 L 0 2 L 0 2.0000000000000004 A 2 2 0 0 1 1.9999999999999996 0 Z"/></g><g transform="matrix(1,0,0,1,0,0)"><path fill="none" stroke="rgb(0,0,0)" id="Task_NotifyPurchasing?shapeType=BORDER&amp;renderType=STROKE" paint-order="fill stroke markers" d=" M 2 0 L 98 0 L 98 0 A 2 2 0 0 1 100 2 L 100 78 L 100 78 A 2 2 0 0 1 98 80 L 2 80 L 2 80 A 2 2 0 0 1 0 78 L 0 2 L 0 2.0000000000000004 A 2 2 0 0 1 1.9999999999999996 0 Z" stroke-miterlimit="10" stroke-width="1.5" stroke-dasharray=""/></g><g transform="matrix(1,0,0,1,8.19921875,17.5)"><text fill="#000000" stroke="none" font-family="Open Sans" font-size="12pt" font-style="normal" font-weight="normal" text-decoration="normal" x="41.80078125" y="12" text-anchor="middle" dominant-baseline="alphabetic">Thông báo </text><text fill="#000000" stroke="none" font-family="Open Sans" font-size="12pt" font-style="normal" font-weight="normal" text-decoration="normal" x="41.80078125" y="27" text-anchor="middle" dominant-baseline="alphabetic">  bộ phận    </text><text fill="#000000" stroke="none" font-family="Open Sans" font-size="12pt" font-style="normal" font-weight="normal" text-decoration="normal" x="41.80078125" y="42" text-anchor="middle" dominant-baseline="alphabetic"> mua hàng </text></g></g><g id="Flow_GatewayToNotifyPurchasing" bpmn2nodeid="Flow_GatewayToNotifyPurchasing"><g><path fill="none" stroke="#000000" paint-order="fill stroke markers" d=" M 449 268 L 449 325" stroke-miterlimit="10" stroke-dasharray=""/></g><g transform="matrix(1,0,0,1,449,268)"/><g transform="matrix(-1,1.2246467991473532e-16,-1.2246467991473532e-16,-1,454,340)"><path fill="#000000" stroke="#000000" paint-order="fill stroke markers" d=" M 10 15 L 0 15 L 5 0 Z" stroke-miterlimit="10" stroke-dasharray=""/></g><g transform="matrix(1,0,0,1,459,291)"><text fill="#000000" stroke="none" font-family="Open Sans" font-size="10pt" font-style="normal" font-weight="normal" text-decoration="normal" x="0" y="10.4" text-anchor="start" dominant-baseline="alphabetic">Có                </text></g></g><g id="Flow_NotifyToEndInventoryCheck" bpmn2nodeid="Flow_NotifyToEndInventoryCheck"><g><path fill="none" stroke="#000000" paint-order="fill stroke markers" d=" M 399 380 L 300 380 L 300 295" stroke-miterlimit="10" stroke-dasharray=""/></g><g transform="matrix(1,0,0,1,399,380)"/><g transform="matrix(1,0,0,1,295,280)"><path fill="#000000" stroke="#000000" paint-order="fill stroke markers" d=" M 10 15 L 0 15 L 5 0 Z" stroke-miterlimit="10" stroke-dasharray=""/></g><g transform="matrix(1,0,0,1,300,370)"/></g><g transform="matrix(1,0,0,1,399,340)"/></g></g></svg>