<svg version="1.1" xmlns="http://www.w3.org/2000/svg" xmlns:xlink="http://www.w3.org/1999/xlink" width="1846" height="551" viewBox="0 0 1846 551"><defs/><g transform="matrix(1,0,0,1,0,0)"><g><g><g><path fill="none" stroke="#d3d3d3" paint-order="fill stroke markers" d=" M 0 0 L 1200 0" stroke-miterlimit="10" stroke-opacity="0.8" stroke-dasharray="5"/></g><g><path fill="none" stroke="#d3d3d3" paint-order="fill stroke markers" d=" M 0 0 L 0 800" stroke-miterlimit="10" stroke-opacity="0.8" stroke-dasharray="5"/></g></g><g id="EndEvent_OrderComplete" bpmn2nodeid="EndEvent_OrderComplete" transform="matrix(1,0,0,1,1740,150)"><g><path fill="none" stroke="none"/></g><g transform="matrix(0.125,0,0,0.125,0,0)"><g transform="matrix(1,0,0,1,0,0)"><path fill="#fce7e7" stroke="black" id="EndEvent_OrderComplete?shapeType=BACKGROUND" paint-order="fill stroke markers" d=" M 0 0 M 444 224 C 444 263.9 434.2 300.8 414.4 334.5 C 394.7 368.2 368 394.9 334.4 414.5 C 300.79999999999995 434.1 263.9 444 224 444 C 184.10000000000002 444 147.2 434.2 113.5 414.4 C 79.8 394.7 53.1 368 33.5 334.4 C 13.899999999999999 300.79999999999995 4 263.9 4 224 C 4 184.10000000000002 13.8 147.2 33.6 113.5 C 53.400000000000006 79.80000000000001 80.1 53.1 113.6 33.5 C 147.1 13.899999999999999 184.1 4 224 4 C 263.9 4 300.8 13.8 334.5 33.6 C 368.2 53.400000000000006 394.9 80.1 414.5 113.6 C 434.1 147.1 444 184.1 444 224 Z" stroke-miterlimit="10" stroke-dasharray=""/></g><g><g transform="matrix(1,0,0,1,0,0)"><g transform="matrix(1,0,0,1,0,0)"><path fill="#a30000" stroke="black" id="EndEvent_OrderComplete?shapeType=BORDER&amp;renderType=FILL" paint-order="fill stroke markers" d=" M 0 0 M 224 0 C 100.3 0 0 100.3 0 224 C 0 347.7 100.3 448 224 448 C 347.7 448 448 347.7 448 224 C 448 100.30000000000001 347.7 0 224 0 Z M 0 0 M 224 400 C 126.8 400 48 321.2 48 224 C 48 126.80000000000001 126.8 48 224 48 C 321.2 48 400 126.8 400 224 C 400 321.2 321.2 400 224 400 Z" stroke-miterlimit="10" stroke-dasharray=""/></g></g></g></g><g transform="matrix(1,0,0,1,-52.75,61)"><text fill="#000000" stroke="none" font-family="Open Sans" font-size="12pt" font-style="normal" font-weight="normal" text-decoration="normal" x="80.75" y="12" text-anchor="middle" dominant-baseline="alphabetic">Hoàn thành đơn hàng</text></g></g><g transform="matrix(1,0,0,1,1740,150)"/><g id="Task_ProcessPayment" bpmn2nodeid="Task_ProcessPayment" transform="matrix(1,0,0,1,1600,138)"><g><path fill="none" stroke="none"/></g><g transform="matrix(1,0,0,1,0,0)"><path fill="#ffffff" stroke="none" id="Task_ProcessPayment?shapeType=BACKGROUND" paint-order="stroke fill markers" d=" M 2 0 L 98 0 L 98 0 A 2 2 0 0 1 100 2 L 100 78 L 100 78 A 2 2 0 0 1 98 80 L 2 80 L 2 80 A 2 2 0 0 1 0 78 L 0 2 L 0 2.0000000000000004 A 2 2 0 0 1 1.9999999999999996 0 Z"/></g><g transform="matrix(1,0,0,1,0,0)"><path fill="none" stroke="#000000" id="Task_ProcessPayment?shapeType=BORDER&amp;renderType=STROKE" paint-order="fill stroke markers" d=" M 2 0 L 98 0 L 98 0 A 2 2 0 0 1 100 2 L 100 78 L 100 78 A 2 2 0 0 1 98 80 L 2 80 L 2 80 A 2 2 0 0 1 0 78 L 0 2 L 0 2.0000000000000004 A 2 2 0 0 1 1.9999999999999996 0 Z" stroke-miterlimit="10" stroke-width="1.5" stroke-dasharray=""/></g><g transform="matrix(1,0,0,1,5.22265625,25)"><text fill="#000000" stroke="none" font-family="Open Sans" font-size="12pt" font-style="normal" font-weight="normal" text-decoration="normal" x="44.77734375" y="12" text-anchor="middle" dominant-baseline="alphabetic">Thanh toán </text><text fill="#000000" stroke="none" font-family="Open Sans" font-size="12pt" font-style="normal" font-weight="normal" text-decoration="normal" x="44.77734375" y="27" text-anchor="middle" dominant-baseline="alphabetic">   COD/CK    </text></g></g><g transform="matrix(1,0,0,1,1600,138)"/><g id="Task_ConfirmDeliverySuccess" bpmn2nodeid="Task_ConfirmDeliverySuccess" transform="matrix(1,0,0,1,1460,138)"><g><path fill="none" stroke="none"/></g><g transform="matrix(1,0,0,1,0,0)"><path fill="#ffffff" stroke="none" id="Task_ConfirmDeliverySuccess?shapeType=BACKGROUND" paint-order="stroke fill markers" d=" M 2 0 L 98 0 L 98 0 A 2 2 0 0 1 100 2 L 100 78 L 100 78 A 2 2 0 0 1 98 80 L 2 80 L 2 80 A 2 2 0 0 1 0 78 L 0 2 L 0 2.0000000000000004 A 2 2 0 0 1 1.9999999999999996 0 Z"/></g><g transform="matrix(1,0,0,1,0,0)"><path fill="none" stroke="#000000" id="Task_ConfirmDeliverySuccess?shapeType=BORDER&amp;renderType=STROKE" paint-order="fill stroke markers" d=" M 2 0 L 98 0 L 98 0 A 2 2 0 0 1 100 2 L 100 78 L 100 78 A 2 2 0 0 1 98 80 L 2 80 L 2 80 A 2 2 0 0 1 0 78 L 0 2 L 0 2.0000000000000004 A 2 2 0 0 1 1.9999999999999996 0 Z" stroke-miterlimit="10" stroke-width="1.5" stroke-dasharray=""/></g><g transform="matrix(1,0,0,1,7.984375,17.5)"><text fill="#000000" stroke="none" font-family="Open Sans" font-size="12pt" font-style="normal" font-weight="normal" text-decoration="normal" x="42.015625" y="12" text-anchor="middle" dominant-baseline="alphabetic"> Xác nhận   </text><text fill="#000000" stroke="none" font-family="Open Sans" font-size="12pt" font-style="normal" font-weight="normal" text-decoration="normal" x="42.015625" y="27" text-anchor="middle" dominant-baseline="alphabetic"> giao hàng  </text><text fill="#000000" stroke="none" font-family="Open Sans" font-size="12pt" font-style="normal" font-weight="normal" text-decoration="normal" x="42.015625" y="42" text-anchor="middle" dominant-baseline="alphabetic">thành công</text></g></g><g transform="matrix(1,0,0,1,1460,138)"/><g id="Task_DeliverToCustomer" bpmn2nodeid="Task_DeliverToCustomer" transform="matrix(1,0,0,1,1320,138)"><g><path fill="none" stroke="none"/></g><g transform="matrix(1,0,0,1,0,0)"><path fill="#ffffff" stroke="none" id="Task_DeliverToCustomer?shapeType=BACKGROUND" paint-order="stroke fill markers" d=" M 2 0 L 98 0 L 98 0 A 2 2 0 0 1 100 2 L 100 78 L 100 78 A 2 2 0 0 1 98 80 L 2 80 L 2 80 A 2 2 0 0 1 0 78 L 0 2 L 0 2.0000000000000004 A 2 2 0 0 1 1.9999999999999996 0 Z"/></g><g transform="matrix(1,0,0,1,0,0)"><path fill="none" stroke="#000000" id="Task_DeliverToCustomer?shapeType=BORDER&amp;renderType=STROKE" paint-order="fill stroke markers" d=" M 2 0 L 98 0 L 98 0 A 2 2 0 0 1 100 2 L 100 78 L 100 78 A 2 2 0 0 1 98 80 L 2 80 L 2 80 A 2 2 0 0 1 0 78 L 0 2 L 0 2.0000000000000004 A 2 2 0 0 1 1.9999999999999996 0 Z" stroke-miterlimit="10" stroke-width="1.5" stroke-dasharray=""/></g><g transform="matrix(1,0,0,1,10.0625,25)"><text fill="#000000" stroke="none" font-family="Open Sans" font-size="12pt" font-style="normal" font-weight="normal" text-decoration="normal" x="39.9375" y="12" text-anchor="middle" dominant-baseline="alphabetic">Giao hàng </text><text fill="#000000" stroke="none" font-family="Open Sans" font-size="12pt" font-style="normal" font-weight="normal" text-decoration="normal" x="39.9375" y="27" text-anchor="middle" dominant-baseline="alphabetic">   cho KH   </text></g></g><g transform="matrix(1,0,0,1,1320,138)"/><g id="Task_HandToTransport" bpmn2nodeid="Task_HandToTransport" transform="matrix(1,0,0,1,1180,138)"><g><path fill="none" stroke="none"/></g><g transform="matrix(1,0,0,1,0,0)"><path fill="#ffffff" stroke="none" id="Task_HandToTransport?shapeType=BACKGROUND" paint-order="stroke fill markers" d=" M 2 0 L 98 0 L 98 0 A 2 2 0 0 1 100 2 L 100 78 L 100 78 A 2 2 0 0 1 98 80 L 2 80 L 2 80 A 2 2 0 0 1 0 78 L 0 2 L 0 2.0000000000000004 A 2 2 0 0 1 1.9999999999999996 0 Z"/></g><g transform="matrix(1,0,0,1,0,0)"><path fill="none" stroke="#000000" id="Task_HandToTransport?shapeType=BORDER&amp;renderType=STROKE" paint-order="fill stroke markers" d=" M 2 0 L 98 0 L 98 0 A 2 2 0 0 1 100 2 L 100 78 L 100 78 A 2 2 0 0 1 98 80 L 2 80 L 2 80 A 2 2 0 0 1 0 78 L 0 2 L 0 2.0000000000000004 A 2 2 0 0 1 1.9999999999999996 0 Z" stroke-miterlimit="10" stroke-width="1.5" stroke-dasharray=""/></g><g transform="matrix(1,0,0,1,15.1640625,25)"><text fill="#000000" stroke="none" font-family="Open Sans" font-size="12pt" font-style="normal" font-weight="normal" text-decoration="normal" x="34.8359375" y="12" text-anchor="middle" dominant-baseline="alphabetic">Giao cho </text><text fill="#000000" stroke="none" font-family="Open Sans" font-size="12pt" font-style="normal" font-weight="normal" text-decoration="normal" x="34.8359375" y="27" text-anchor="middle" dominant-baseline="alphabetic">   vận tải   </text></g></g><g transform="matrix(1,0,0,1,1180,138)"/><g id="Task_CreateDeliverySlip" bpmn2nodeid="Task_CreateDeliverySlip" transform="matrix(1,0,0,1,1040,138)"><g><path fill="none" stroke="none"/></g><g transform="matrix(1,0,0,1,0,0)"><path fill="#ffffff" stroke="none" id="Task_CreateDeliverySlip?shapeType=BACKGROUND" paint-order="stroke fill markers" d=" M 2 0 L 98 0 L 98 0 A 2 2 0 0 1 100 2 L 100 78 L 100 78 A 2 2 0 0 1 98 80 L 2 80 L 2 80 A 2 2 0 0 1 0 78 L 0 2 L 0 2.0000000000000004 A 2 2 0 0 1 1.9999999999999996 0 Z"/></g><g transform="matrix(1,0,0,1,0,0)"><path fill="none" stroke="#000000" id="Task_CreateDeliverySlip?shapeType=BORDER&amp;renderType=STROKE" paint-order="fill stroke markers" d=" M 2 0 L 98 0 L 98 0 A 2 2 0 0 1 100 2 L 100 78 L 100 78 A 2 2 0 0 1 98 80 L 2 80 L 2 80 A 2 2 0 0 1 0 78 L 0 2 L 0 2.0000000000000004 A 2 2 0 0 1 1.9999999999999996 0 Z" stroke-miterlimit="10" stroke-width="1.5" stroke-dasharray=""/></g><g transform="matrix(1,0,0,1,12.359375,25)"><text fill="#000000" stroke="none" font-family="Open Sans" font-size="12pt" font-style="normal" font-weight="normal" text-decoration="normal" x="37.640625" y="12" text-anchor="middle" dominant-baseline="alphabetic">Lập phiếu </text><text fill="#000000" stroke="none" font-family="Open Sans" font-size="12pt" font-style="normal" font-weight="normal" text-decoration="normal" x="37.640625" y="27" text-anchor="middle" dominant-baseline="alphabetic">giao hàng </text></g></g><g transform="matrix(1,0,0,1,1040,138)"/><g id="Task_PackageGoods" bpmn2nodeid="Task_PackageGoods" transform="matrix(1,0,0,1,900,138)"><g><path fill="none" stroke="none"/></g><g transform="matrix(1,0,0,1,0,0)"><path fill="#ffffff" stroke="none" id="Task_PackageGoods?shapeType=BACKGROUND" paint-order="stroke fill markers" d=" M 2 0 L 98 0 L 98 0 A 2 2 0 0 1 100 2 L 100 78 L 100 78 A 2 2 0 0 1 98 80 L 2 80 L 2 80 A 2 2 0 0 1 0 78 L 0 2 L 0 2.0000000000000004 A 2 2 0 0 1 1.9999999999999996 0 Z"/></g><g transform="matrix(1,0,0,1,0,0)"><path fill="none" stroke="#000000" id="Task_PackageGoods?shapeType=BORDER&amp;renderType=STROKE" paint-order="fill stroke markers" d=" M 2 0 L 98 0 L 98 0 A 2 2 0 0 1 100 2 L 100 78 L 100 78 A 2 2 0 0 1 98 80 L 2 80 L 2 80 A 2 2 0 0 1 0 78 L 0 2 L 0 2.0000000000000004 A 2 2 0 0 1 1.9999999999999996 0 Z" stroke-miterlimit="10" stroke-width="1.5" stroke-dasharray=""/></g><g transform="matrix(1,0,0,1,16.78125,32.5)"><text fill="#000000" stroke="none" font-family="Open Sans" font-size="12pt" font-style="normal" font-weight="normal" text-decoration="normal" x="33.21875" y="12" text-anchor="middle" dominant-baseline="alphabetic">Đóng gói</text></g></g><g transform="matrix(1,0,0,1,900,138)"/><g id="Task_PrepareGoods" bpmn2nodeid="Task_PrepareGoods" transform="matrix(1,0,0,1,760,138)"><g><path fill="none" stroke="none"/></g><g transform="matrix(1,0,0,1,0,0)"><path fill="#ffffff" stroke="none" id="Task_PrepareGoods?shapeType=BACKGROUND" paint-order="stroke fill markers" d=" M 2 0 L 98 0 L 98 0 A 2 2 0 0 1 100 2 L 100 78 L 100 78 A 2 2 0 0 1 98 80 L 2 80 L 2 80 A 2 2 0 0 1 0 78 L 0 2 L 0 2.0000000000000004 A 2 2 0 0 1 1.9999999999999996 0 Z"/></g><g transform="matrix(1,0,0,1,0,0)"><path fill="none" stroke="#000000" id="Task_PrepareGoods?shapeType=BORDER&amp;renderType=STROKE" paint-order="fill stroke markers" d=" M 2 0 L 98 0 L 98 0 A 2 2 0 0 1 100 2 L 100 78 L 100 78 A 2 2 0 0 1 98 80 L 2 80 L 2 80 A 2 2 0 0 1 0 78 L 0 2 L 0 2.0000000000000004 A 2 2 0 0 1 1.9999999999999996 0 Z" stroke-miterlimit="10" stroke-width="1.5" stroke-dasharray=""/></g><g transform="matrix(1,0,0,1,15.078125,25)"><text fill="#000000" stroke="none" font-family="Open Sans" font-size="12pt" font-style="normal" font-weight="normal" text-decoration="normal" x="34.921875" y="12" text-anchor="middle" dominant-baseline="alphabetic">Chuẩn bị </text><text fill="#000000" stroke="none" font-family="Open Sans" font-size="12pt" font-style="normal" font-weight="normal" text-decoration="normal" x="34.921875" y="27" text-anchor="middle" dominant-baseline="alphabetic">hàng hóa</text></g></g><g transform="matrix(1,0,0,1,760,138)"/><g id="Task_ConfirmOrder" bpmn2nodeid="Task_ConfirmOrder" transform="matrix(1,0,0,1,620,138)"><g><path fill="none" stroke="none"/></g><g transform="matrix(1,0,0,1,0,0)"><path fill="#ffffff" stroke="none" id="Task_ConfirmOrder?shapeType=BACKGROUND" paint-order="stroke fill markers" d=" M 2 0 L 98 0 L 98 0 A 2 2 0 0 1 100 2 L 100 78 L 100 78 A 2 2 0 0 1 98 80 L 2 80 L 2 80 A 2 2 0 0 1 0 78 L 0 2 L 0 2.0000000000000004 A 2 2 0 0 1 1.9999999999999996 0 Z"/></g><g transform="matrix(1,0,0,1,0,0)"><path fill="none" stroke="#000000" id="Task_ConfirmOrder?shapeType=BORDER&amp;renderType=STROKE" paint-order="fill stroke markers" d=" M 2 0 L 98 0 L 98 0 A 2 2 0 0 1 100 2 L 100 78 L 100 78 A 2 2 0 0 1 98 80 L 2 80 L 2 80 A 2 2 0 0 1 0 78 L 0 2 L 0 2.0000000000000004 A 2 2 0 0 1 1.9999999999999996 0 Z" stroke-miterlimit="10" stroke-width="1.5" stroke-dasharray=""/></g><g transform="matrix(1,0,0,1,13.42578125,17.5)"><text fill="#000000" stroke="none" font-family="Open Sans" font-size="12pt" font-style="normal" font-weight="normal" text-decoration="normal" x="36.57421875" y="12" text-anchor="middle" dominant-baseline="alphabetic">Xác nhận  </text><text fill="#000000" stroke="none" font-family="Open Sans" font-size="12pt" font-style="normal" font-weight="normal" text-decoration="normal" x="36.57421875" y="27" text-anchor="middle" dominant-baseline="alphabetic">đơn hàng </text><text fill="#000000" stroke="none" font-family="Open Sans" font-size="12pt" font-style="normal" font-weight="normal" text-decoration="normal" x="36.57421875" y="42" text-anchor="middle" dominant-baseline="alphabetic">   với KH   </text></g></g><g transform="matrix(1,0,0,1,620,138)"/><g id="Gateway_CustomerAgrees" bpmn2nodeid="Gateway_CustomerAgrees" transform="matrix(1,0,0,1,800,272)"><g><path fill="none" stroke="none"/></g><g transform="matrix(0.125,0,0,0.125,0,0)"><g transform="matrix(1,0,0,1,0,0)"><path fill="#fef4ea" stroke="black" id="Gateway_CustomerAgrees?shapeType=BACKGROUND" paint-order="fill stroke markers" d=" M 0 0 M 224.4 4.3 C 216.4 4.3 208.4 7.3 202.3 13.399999999999999 L 13.5 202.2 C 1.3000000000000007 214.39999999999998 1.3000000000000007 234.2 13.5 246.39999999999998 L 202.2 435.09999999999997 C 208.29999999999998 441.2 216.39999999999998 444.2 224.29999999999998 444.2 C 232.2 444.2 240.29999999999998 441.2 246.39999999999998 435.09999999999997 L 435.09999999999997 246.39999999999998 C 447.29999999999995 234.2 447.29999999999995 214.39999999999998 435.09999999999997 202.2 L 246.5 13.4 C 240.4 7.3 232.4 4.3 224.4 4.3 L 224.4 4.3 Z" stroke-miterlimit="10" stroke-dasharray=""/></g><g><g transform="matrix(1,0,0,1,0,0)"><g transform="matrix(1,0,0,1,0,0)"><path fill="#ec7a08" stroke="black" id="Gateway_CustomerAgrees?shapeType=BORDER&amp;renderType=FILL" paint-order="fill stroke markers" d=" M 0 0 M 20.8 212.7 L 213.3 20.2 C 219.60000000000002 13.899999999999999 229.70000000000002 13.899999999999999 235.9 20.2 L 428.4 212.7 C 434.7 219 434.7 229.1 428.4 235.29999999999998 L 235.9 427.8 C 229.6 434.1 219.5 434.1 213.3 427.8 L 20.8 235.3 C 14.5 229.1 14.5 218.9 20.8 212.7 L 20.8 212.7 Z M 0 0 M 0 224 C 0 232.1 3.1 240.3 9.3 246.5 L 201.5 438.7 C 213.9 451.09999999999997 234.1 451.09999999999997 246.5 438.7 L 438.7 246.5 C 444.9 240.3 448 232.1 448 224 C 448 215.9 444.9 207.7 438.7 201.5 L 246.5 9.3 C 234.1 -3.0999999999999996 213.9 -3.0999999999999996 201.5 9.3 L 9.3 201.5 C 3.1 207.7 0 215.9 0 224 L 0 224 Z" stroke-miterlimit="10" stroke-dasharray=""/></g></g></g><g><g transform="matrix(1,0,0,1,0,0)"><g transform="matrix(1,0,0,1,0,0)"><path fill="#ec7a08" stroke="black" id="Gateway_CustomerAgrees_exclusive" paint-order="fill stroke markers" d=" M 0 0 M 298.2 269.2 C 298.2 272.59999999999997 297.09999999999997 275.3 294.7 277.7 L 277.7 294.7 C 275.3 297.09999999999997 272.59999999999997 298.2 269.2 298.2 C 265.8 298.2 263.09999999999997 297.09999999999997 260.7 294.7 L 224 258 L 187.2 294.8 C 184.79999999999998 297.2 182.1 298.3 178.7 298.3 C 175.29999999999998 298.3 172.6 297.2 170.2 294.8 L 153.2 277.8 C 150.79999999999998 275.40000000000003 149.7 272.7 149.7 269.3 C 149.7 265.90000000000003 150.79999999999998 263.2 153.2 260.8 L 190 224 L 153.2 187.2 C 150.79999999999998 184.79999999999998 149.7 182 149.7 178.7 C 149.7 175.29999999999998 150.79999999999998 172.5 153.2 170.2 L 170.2 153.2 C 172.6 150.79999999999998 175.29999999999998 149.7 178.7 149.7 C 182.1 149.7 184.79999999999998 150.79999999999998 187.2 153.2 L 224 190 L 260.8 153.2 C 263.2 150.79999999999998 265.90000000000003 149.7 269.3 149.7 C 272.7 149.7 275.40000000000003 150.79999999999998 277.8 153.2 L 294.8 170.2 C 297.2 172.5 298.3 175.29999999999998 298.3 178.7 C 298.3 182 297.2 184.79999999999998 294.8 187.2 L 258 224 L 294.8 260.8 C 297.1 263.1 298.2 265.9 298.2 269.2 Z" stroke-miterlimit="10" stroke-dasharray=""/></g></g></g></g><g transform="matrix(1,0,0,1,-12.8984375,61)"><text fill="#000000" stroke="none" font-family="Open Sans" font-size="12pt" font-style="normal" font-weight="normal" text-decoration="normal" x="40.8984375" y="12" text-anchor="middle" dominant-baseline="alphabetic">KH đồng ý?</text></g></g><g transform="matrix(1,0,0,1,800,272)"/><g id="Task_SuggestAlternative" bpmn2nodeid="Task_SuggestAlternative" transform="matrix(1,0,0,1,650,310)"><g><path fill="none" stroke="none"/></g><g transform="matrix(1,0,0,1,0,0)"><path fill="#ffffff" stroke="none" id="Task_SuggestAlternative?shapeType=BACKGROUND" paint-order="stroke fill markers" d=" M 2 0 L 98 0 L 98 0 A 2 2 0 0 1 100 2 L 100 78 L 100 78 A 2 2 0 0 1 98 80 L 2 80 L 2 80 A 2 2 0 0 1 0 78 L 0 2 L 0 2.0000000000000004 A 2 2 0 0 1 1.9999999999999996 0 Z"/></g><g transform="matrix(1,0,0,1,0,0)"><path fill="none" stroke="#000000" id="Task_SuggestAlternative?shapeType=BORDER&amp;renderType=STROKE" paint-order="fill stroke markers" d=" M 2 0 L 98 0 L 98 0 A 2 2 0 0 1 100 2 L 100 78 L 100 78 A 2 2 0 0 1 98 80 L 2 80 L 2 80 A 2 2 0 0 1 0 78 L 0 2 L 0 2.0000000000000004 A 2 2 0 0 1 1.9999999999999996 0 Z" stroke-miterlimit="10" stroke-width="1.5" stroke-dasharray=""/></g><g transform="matrix(1,0,0,1,5.1328125,17.5)"><text fill="#000000" stroke="none" font-family="Open Sans" font-size="12pt" font-style="normal" font-weight="normal" text-decoration="normal" x="44.8671875" y="12" text-anchor="middle" dominant-baseline="alphabetic">Đề xuất sản </text><text fill="#000000" stroke="none" font-family="Open Sans" font-size="12pt" font-style="normal" font-weight="normal" text-decoration="normal" x="44.8671875" y="27" text-anchor="middle" dominant-baseline="alphabetic"> phẩm thay  </text><text fill="#000000" stroke="none" font-family="Open Sans" font-size="12pt" font-style="normal" font-weight="normal" text-decoration="normal" x="44.8671875" y="42" text-anchor="middle" dominant-baseline="alphabetic">        thế        </text></g></g><g transform="matrix(1,0,0,1,650,310)"/><g id="Gateway_StockAvailable" bpmn2nodeid="Gateway_StockAvailable" transform="matrix(1,0,0,1,520,150)"><g><path fill="none" stroke="none"/></g><g transform="matrix(0.125,0,0,0.125,0,0)"><g transform="matrix(1,0,0,1,0,0)"><path fill="#fef4ea" stroke="black" id="Gateway_StockAvailable?shapeType=BACKGROUND" paint-order="fill stroke markers" d=" M 0 0 M 224.4 4.3 C 216.4 4.3 208.4 7.3 202.3 13.399999999999999 L 13.5 202.2 C 1.3000000000000007 214.39999999999998 1.3000000000000007 234.2 13.5 246.39999999999998 L 202.2 435.09999999999997 C 208.29999999999998 441.2 216.39999999999998 444.2 224.29999999999998 444.2 C 232.2 444.2 240.29999999999998 441.2 246.39999999999998 435.09999999999997 L 435.09999999999997 246.39999999999998 C 447.29999999999995 234.2 447.29999999999995 214.39999999999998 435.09999999999997 202.2 L 246.5 13.4 C 240.4 7.3 232.4 4.3 224.4 4.3 L 224.4 4.3 Z" stroke-miterlimit="10" stroke-dasharray=""/></g><g><g transform="matrix(1,0,0,1,0,0)"><g transform="matrix(1,0,0,1,0,0)"><path fill="#ec7a08" stroke="black" id="Gateway_StockAvailable?shapeType=BORDER&amp;renderType=FILL" paint-order="fill stroke markers" d=" M 0 0 M 20.8 212.7 L 213.3 20.2 C 219.60000000000002 13.899999999999999 229.70000000000002 13.899999999999999 235.9 20.2 L 428.4 212.7 C 434.7 219 434.7 229.1 428.4 235.29999999999998 L 235.9 427.8 C 229.6 434.1 219.5 434.1 213.3 427.8 L 20.8 235.3 C 14.5 229.1 14.5 218.9 20.8 212.7 L 20.8 212.7 Z M 0 0 M 0 224 C 0 232.1 3.1 240.3 9.3 246.5 L 201.5 438.7 C 213.9 451.09999999999997 234.1 451.09999999999997 246.5 438.7 L 438.7 246.5 C 444.9 240.3 448 232.1 448 224 C 448 215.9 444.9 207.7 438.7 201.5 L 246.5 9.3 C 234.1 -3.0999999999999996 213.9 -3.0999999999999996 201.5 9.3 L 9.3 201.5 C 3.1 207.7 0 215.9 0 224 L 0 224 Z" stroke-miterlimit="10" stroke-dasharray=""/></g></g></g><g><g transform="matrix(1,0,0,1,0,0)"><g transform="matrix(1,0,0,1,0,0)"><path fill="#ec7a08" stroke="black" id="Gateway_StockAvailable_exclusive" paint-order="fill stroke markers" d=" M 0 0 M 298.2 269.2 C 298.2 272.59999999999997 297.09999999999997 275.3 294.7 277.7 L 277.7 294.7 C 275.3 297.09999999999997 272.59999999999997 298.2 269.2 298.2 C 265.8 298.2 263.09999999999997 297.09999999999997 260.7 294.7 L 224 258 L 187.2 294.8 C 184.79999999999998 297.2 182.1 298.3 178.7 298.3 C 175.29999999999998 298.3 172.6 297.2 170.2 294.8 L 153.2 277.8 C 150.79999999999998 275.40000000000003 149.7 272.7 149.7 269.3 C 149.7 265.90000000000003 150.79999999999998 263.2 153.2 260.8 L 190 224 L 153.2 187.2 C 150.79999999999998 184.79999999999998 149.7 182 149.7 178.7 C 149.7 175.29999999999998 150.79999999999998 172.5 153.2 170.2 L 170.2 153.2 C 172.6 150.79999999999998 175.29999999999998 149.7 178.7 149.7 C 182.1 149.7 184.79999999999998 150.79999999999998 187.2 153.2 L 224 190 L 260.8 153.2 C 263.2 150.79999999999998 265.90000000000003 149.7 269.3 149.7 C 272.7 149.7 275.40000000000003 150.79999999999998 277.8 153.2 L 294.8 170.2 C 297.2 172.5 298.3 175.29999999999998 298.3 178.7 C 298.3 182 297.2 184.79999999999998 294.8 187.2 L 258 224 L 294.8 260.8 C 297.1 263.1 298.2 265.9 298.2 269.2 Z" stroke-miterlimit="10" stroke-dasharray=""/></g></g></g></g><g transform="matrix(1,0,0,1,-16.12109375,61)"><text fill="#000000" stroke="none" font-family="Open Sans" font-size="12pt" font-style="normal" font-weight="normal" text-decoration="normal" x="44.12109375" y="12" text-anchor="middle" dominant-baseline="alphabetic">Có đủ hàng?</text></g></g><g transform="matrix(1,0,0,1,520,150)"/><g id="Task_CheckInventory" bpmn2nodeid="Task_CheckInventory" transform="matrix(1,0,0,1,380,138)"><g><path fill="none" stroke="none"/></g><g transform="matrix(1,0,0,1,0,0)"><path fill="#ffffff" stroke="none" id="Task_CheckInventory?shapeType=BACKGROUND" paint-order="stroke fill markers" d=" M 2 0 L 98 0 L 98 0 A 2 2 0 0 1 100 2 L 100 78 L 100 78 A 2 2 0 0 1 98 80 L 2 80 L 2 80 A 2 2 0 0 1 0 78 L 0 2 L 0 2.0000000000000004 A 2 2 0 0 1 1.9999999999999996 0 Z"/></g><g transform="matrix(1,0,0,1,0,0)"><path fill="none" stroke="rgb(0,0,0)" id="Task_CheckInventory?shapeType=BORDER&amp;renderType=STROKE" paint-order="fill stroke markers" d=" M 2 0 L 98 0 L 98 0 A 2 2 0 0 1 100 2 L 100 78 L 100 78 A 2 2 0 0 1 98 80 L 2 80 L 2 80 A 2 2 0 0 1 0 78 L 0 2 L 0 2.0000000000000004 A 2 2 0 0 1 1.9999999999999996 0 Z" stroke-miterlimit="10" stroke-width="1.5" stroke-dasharray=""/></g><g transform="matrix(1,0,0,1,17.5390625,25)"><text fill="#000000" stroke="none" font-family="Open Sans" font-size="12pt" font-style="normal" font-weight="normal" text-decoration="normal" x="32.4609375" y="12" text-anchor="middle" dominant-baseline="alphabetic">Kiểm tra </text><text fill="#000000" stroke="none" font-family="Open Sans" font-size="12pt" font-style="normal" font-weight="normal" text-decoration="normal" x="32.4609375" y="27" text-anchor="middle" dominant-baseline="alphabetic"> tồn kho </text></g></g><g transform="matrix(1,0,0,1,380,138)"/><g id="Task_CheckOrderInfo" bpmn2nodeid="Task_CheckOrderInfo" transform="matrix(1,0,0,1,150,138)"><g><path fill="none" stroke="none"/></g><g transform="matrix(1,0,0,1,0,0)"><path fill="#ffffff" stroke="none" id="Task_CheckOrderInfo?shapeType=BACKGROUND" paint-order="stroke fill markers" d=" M 2 0 L 98 0 L 98 0 A 2 2 0 0 1 100 2 L 100 78 L 100 78 A 2 2 0 0 1 98 80 L 2 80 L 2 80 A 2 2 0 0 1 0 78 L 0 2 L 0 2.0000000000000004 A 2 2 0 0 1 1.9999999999999996 0 Z"/></g><g transform="matrix(1,0,0,1,0,0)"><path fill="none" stroke="#000000" id="Task_CheckOrderInfo?shapeType=BORDER&amp;renderType=STROKE" paint-order="fill stroke markers" d=" M 2 0 L 98 0 L 98 0 A 2 2 0 0 1 100 2 L 100 78 L 100 78 A 2 2 0 0 1 98 80 L 2 80 L 2 80 A 2 2 0 0 1 0 78 L 0 2 L 0 2.0000000000000004 A 2 2 0 0 1 1.9999999999999996 0 Z" stroke-miterlimit="10" stroke-width="1.5" stroke-dasharray=""/></g><g transform="matrix(1,0,0,1,14.2265625,17.5)"><text fill="#000000" stroke="none" font-family="Open Sans" font-size="12pt" font-style="normal" font-weight="normal" text-decoration="normal" x="35.7734375" y="12" text-anchor="middle" dominant-baseline="alphabetic"> Kiểm tra  </text><text fill="#000000" stroke="none" font-family="Open Sans" font-size="12pt" font-style="normal" font-weight="normal" text-decoration="normal" x="35.7734375" y="27" text-anchor="middle" dominant-baseline="alphabetic">thông tin </text><text fill="#000000" stroke="none" font-family="Open Sans" font-size="12pt" font-style="normal" font-weight="normal" text-decoration="normal" x="35.7734375" y="42" text-anchor="middle" dominant-baseline="alphabetic">đơn hàng </text></g></g><g transform="matrix(1,0,0,1,150,138)"/><g id="StartEvent_ReceiveOnlineOrder" bpmn2nodeid="StartEvent_ReceiveOnlineOrder" transform="matrix(1,0,0,1,50,150)"><g><path fill="none" stroke="none"/></g><g transform="matrix(0.125,0,0,0.125,0,0)"><g transform="matrix(1,0,0,1,0,0)"><path fill="#e8fae6" stroke="black" id="StartEvent_ReceiveOnlineOrder?shapeType=BACKGROUND" paint-order="fill stroke markers" d=" M 0 0 M 444 224 C 444 263.9 434.2 300.8 414.4 334.5 C 394.7 368.2 368 394.9 334.4 414.5 C 300.79999999999995 434.1 263.9 444 224 444 C 184.10000000000002 444 147.2 434.2 113.5 414.4 C 79.8 394.7 53.1 368 33.5 334.4 C 13.899999999999999 300.79999999999995 4 263.9 4 224 C 4 184.10000000000002 13.8 147.2 33.6 113.5 C 53.400000000000006 79.80000000000001 80.1 53.1 113.6 33.5 C 147.1 13.899999999999999 184.1 4 224 4 C 263.9 4 300.8 13.8 334.5 33.6 C 368.2 53.400000000000006 394.9 80.1 414.5 113.6 C 434.1 147.1 444 184.1 444 224 Z" stroke-miterlimit="10" stroke-dasharray=""/></g><g><g transform="matrix(1,0,0,1,0,0)"><g transform="matrix(1,0,0,1,0,0)"><path fill="#4aa241" stroke="black" id="StartEvent_ReceiveOnlineOrder?shapeType=BORDER&amp;renderType=FILL" paint-order="fill stroke markers" d=" M 0 0 M 224 0 C 100.3 0 0 100.3 0 224 C 0 347.7 100.3 448 224 448 C 347.7 448 448 347.7 448 224 C 448 100.30000000000001 347.7 0 224 0 Z M 0 0 M 224 432 C 109.1 432 16 338.9 16 224 C 16 109.10000000000002 109.1 16 224 16 C 338.9 16 432 109.1 432 224 C 432 338.9 338.9 432 224 432 Z" stroke-miterlimit="10" stroke-dasharray=""/></g></g></g></g><g transform="matrix(1,0,0,1,-53.2421875,61)"><text fill="#000000" stroke="none" font-family="Open Sans" font-size="12pt" font-style="normal" font-weight="normal" text-decoration="normal" x="81.2421875" y="12" text-anchor="middle" dominant-baseline="alphabetic">Nhận đơn hàng online</text></g></g><g transform="matrix(1,0,0,1,50,150)"/><g id="Flow_StartToCheck" bpmn2nodeid="Flow_StartToCheck"><g><path fill="none" stroke="#000000" paint-order="fill stroke markers" d=" M 106 178 L 135 178" stroke-miterlimit="10" stroke-dasharray=""/></g><g transform="matrix(1,0,0,1,106,178)"/><g transform="matrix(6.123233995736766e-17,1,-1,6.123233995736766e-17,150,173)"><path fill="#000000" stroke="#000000" paint-order="fill stroke markers" d=" M 10 15 L 0 15 L 5 0 Z" stroke-miterlimit="10" stroke-dasharray=""/></g><g transform="matrix(1,0,0,1,106,168)"/></g><g id="Flow_InventoryToStock" bpmn2nodeid="Flow_InventoryToStock"><g><path fill="none" stroke="#000000" paint-order="fill stroke markers" d=" M 480 178 L 505 178" stroke-miterlimit="10" stroke-dasharray=""/></g><g transform="matrix(1,0,0,1,480,178)"/><g transform="matrix(6.123233995736766e-17,1,-1,6.123233995736766e-17,520,173)"><path fill="#000000" stroke="#000000" paint-order="fill stroke markers" d=" M 10 15 L 0 15 L 5 0 Z" stroke-miterlimit="10" stroke-dasharray=""/></g><g transform="matrix(1,0,0,1,480,168)"/></g><g id="Flow_AlternativeToCustomerDecision" bpmn2nodeid="Flow_AlternativeToCustomerDecision"><g><path fill="none" stroke="#000000" paint-order="fill stroke markers" d=" M 750 350 L 775 350 L 775 300 L 785 300" stroke-miterlimit="10" stroke-dasharray=""/></g><g transform="matrix(1,0,0,1,750,350)"/><g transform="matrix(6.123233995736766e-17,1,-1,6.123233995736766e-17,800,295)"><path fill="#000000" stroke="#000000" paint-order="fill stroke markers" d=" M 10 15 L 0 15 L 5 0 Z" stroke-miterlimit="10" stroke-dasharray=""/></g><g transform="matrix(1,0,0,1,750,340)"/></g><g id="Flow_CustomerAgrees" bpmn2nodeid="Flow_CustomerAgrees"><g><path fill="none" stroke="rgb(0,0,0)" paint-order="fill stroke markers" d=" M 800 300 L 725 253 L 682.6549223159816 226.0531323828974" stroke-miterlimit="10" stroke-dasharray=""/></g><g transform="matrix(1,0,0,1,800,300)"/><g transform="matrix(0.5368754921931598,-0.8436614877321073,0.8436614877321073,0.5368754921931598,667.3156225390342,222.21830743866053)"><path fill="rgb(0,0,0)" stroke="rgb(0,0,0)" paint-order="fill stroke markers" d=" M 10 15 L 0 15 L 5 0 Z" stroke-miterlimit="10" stroke-dasharray=""/></g><g transform="matrix(1,0,0,1,730.3101412602904,255.02637032932392)"><text fill="#000000" stroke="none" font-family="Open Sans" font-size="10pt" font-style="normal" font-weight="normal" text-decoration="normal" x="0" y="10.4" text-anchor="start" dominant-baseline="alphabetic">Có                     </text></g></g><g id="Flow_ConfirmToPrepare" bpmn2nodeid="Flow_ConfirmToPrepare"><g><path fill="none" stroke="#000000" paint-order="fill stroke markers" d=" M 720 178 L 745 178" stroke-miterlimit="10" stroke-dasharray=""/></g><g transform="matrix(1,0,0,1,720,178)"/><g transform="matrix(6.123233995736766e-17,1,-1,6.123233995736766e-17,760,173)"><path fill="#000000" stroke="#000000" paint-order="fill stroke markers" d=" M 10 15 L 0 15 L 5 0 Z" stroke-miterlimit="10" stroke-dasharray=""/></g><g transform="matrix(1,0,0,1,720,168)"/></g><g id="Flow_PrepareToPackage" bpmn2nodeid="Flow_PrepareToPackage"><g><path fill="none" stroke="#000000" paint-order="fill stroke markers" d=" M 860 178 L 885 178" stroke-miterlimit="10" stroke-dasharray=""/></g><g transform="matrix(1,0,0,1,860,178)"/><g transform="matrix(6.123233995736766e-17,1,-1,6.123233995736766e-17,900,173)"><path fill="#000000" stroke="#000000" paint-order="fill stroke markers" d=" M 10 15 L 0 15 L 5 0 Z" stroke-miterlimit="10" stroke-dasharray=""/></g><g transform="matrix(1,0,0,1,860,168)"/></g><g id="Flow_PackageToSlip" bpmn2nodeid="Flow_PackageToSlip"><g><path fill="none" stroke="#000000" paint-order="fill stroke markers" d=" M 1000 178 L 1025 178" stroke-miterlimit="10" stroke-dasharray=""/></g><g transform="matrix(1,0,0,1,1000,178)"/><g transform="matrix(6.123233995736766e-17,1,-1,6.123233995736766e-17,1040,173)"><path fill="#000000" stroke="#000000" paint-order="fill stroke markers" d=" M 10 15 L 0 15 L 5 0 Z" stroke-miterlimit="10" stroke-dasharray=""/></g><g transform="matrix(1,0,0,1,1000,168)"/></g><g id="Flow_SlipToTransport" bpmn2nodeid="Flow_SlipToTransport"><g><path fill="none" stroke="#000000" paint-order="fill stroke markers" d=" M 1140 178 L 1165 178" stroke-miterlimit="10" stroke-dasharray=""/></g><g transform="matrix(1,0,0,1,1140,178)"/><g transform="matrix(6.123233995736766e-17,1,-1,6.123233995736766e-17,1180,173)"><path fill="#000000" stroke="#000000" paint-order="fill stroke markers" d=" M 10 15 L 0 15 L 5 0 Z" stroke-miterlimit="10" stroke-dasharray=""/></g><g transform="matrix(1,0,0,1,1140,168)"/></g><g id="Flow_TransportToDeliver" bpmn2nodeid="Flow_TransportToDeliver"><g><path fill="none" stroke="#000000" paint-order="fill stroke markers" d=" M 1280 178 L 1305 178" stroke-miterlimit="10" stroke-dasharray=""/></g><g transform="matrix(1,0,0,1,1280,178)"/><g transform="matrix(6.123233995736766e-17,1,-1,6.123233995736766e-17,1320,173)"><path fill="#000000" stroke="#000000" paint-order="fill stroke markers" d=" M 10 15 L 0 15 L 5 0 Z" stroke-miterlimit="10" stroke-dasharray=""/></g><g transform="matrix(1,0,0,1,1280,168)"/></g><g id="Flow_DeliverToConfirmSuccess" bpmn2nodeid="Flow_DeliverToConfirmSuccess"><g><path fill="none" stroke="#000000" paint-order="fill stroke markers" d=" M 1420 178 L 1445 178" stroke-miterlimit="10" stroke-dasharray=""/></g><g transform="matrix(1,0,0,1,1420,178)"/><g transform="matrix(6.123233995736766e-17,1,-1,6.123233995736766e-17,1460,173)"><path fill="#000000" stroke="#000000" paint-order="fill stroke markers" d=" M 10 15 L 0 15 L 5 0 Z" stroke-miterlimit="10" stroke-dasharray=""/></g><g transform="matrix(1,0,0,1,1420,168)"/></g><g id="Flow_ConfirmSuccessToPayment" bpmn2nodeid="Flow_ConfirmSuccessToPayment"><g><path fill="none" stroke="#000000" paint-order="fill stroke markers" d=" M 1560 178 L 1585 178" stroke-miterlimit="10" stroke-dasharray=""/></g><g transform="matrix(1,0,0,1,1560,178)"/><g transform="matrix(6.123233995736766e-17,1,-1,6.123233995736766e-17,1600,173)"><path fill="#000000" stroke="#000000" paint-order="fill stroke markers" d=" M 10 15 L 0 15 L 5 0 Z" stroke-miterlimit="10" stroke-dasharray=""/></g><g transform="matrix(1,0,0,1,1560,168)"/></g><g id="Flow_PaymentToComplete" bpmn2nodeid="Flow_PaymentToComplete"><g><path fill="none" stroke="#000000" paint-order="fill stroke markers" d=" M 1700 178 L 1725 178" stroke-miterlimit="10" stroke-dasharray=""/></g><g transform="matrix(1,0,0,1,1700,178)"/><g transform="matrix(6.123233995736766e-17,1,-1,6.123233995736766e-17,1740,173)"><path fill="#000000" stroke="#000000" paint-order="fill stroke markers" d=" M 10 15 L 0 15 L 5 0 Z" stroke-miterlimit="10" stroke-dasharray=""/></g><g transform="matrix(1,0,0,1,1700,168)"/></g><g id="Flow_StockToConfirm" bpmn2nodeid="Flow_StockToConfirm"><g><path fill="none" stroke="#000000" paint-order="fill stroke markers" d=" M 576 178 L 605 178" stroke-miterlimit="10" stroke-dasharray=""/></g><g transform="matrix(1,0,0,1,576,178)"/><g transform="matrix(6.123233995736766e-17,1,-1,6.123233995736766e-17,620,173)"><path fill="#000000" stroke="#000000" paint-order="fill stroke markers" d=" M 10 15 L 0 15 L 5 0 Z" stroke-miterlimit="10" stroke-dasharray=""/></g><g transform="matrix(1,0,0,1,576,155)"><text fill="#000000" stroke="none" font-family="Open Sans" font-size="10pt" font-style="normal" font-weight="normal" text-decoration="normal" x="0" y="10.4" text-anchor="start" dominant-baseline="alphabetic">Có        </text></g></g><g id="Task_NotifyOutOfStock" bpmn2nodeid="Task_NotifyOutOfStock" transform="matrix(1,0,0,1,498,287)"><g><path fill="none" stroke="none"/></g><g transform="matrix(1,0,0,1,0,0)"><path fill="#ffffff" stroke="none" id="Task_NotifyOutOfStock?shapeType=BACKGROUND" paint-order="stroke fill markers" d=" M 2 0 L 98 0 L 98 0 A 2 2 0 0 1 100 2 L 100 78 L 100 78 A 2 2 0 0 1 98 80 L 2 80 L 2 80 A 2 2 0 0 1 0 78 L 0 2 L 0 2.0000000000000004 A 2 2 0 0 1 1.9999999999999996 0 Z"/></g><g transform="matrix(1,0,0,1,0,0)"><path fill="none" stroke="rgb(0,0,0)" id="Task_NotifyOutOfStock?shapeType=BORDER&amp;renderType=STROKE" paint-order="fill stroke markers" d=" M 2 0 L 98 0 L 98 0 A 2 2 0 0 1 100 2 L 100 78 L 100 78 A 2 2 0 0 1 98 80 L 2 80 L 2 80 A 2 2 0 0 1 0 78 L 0 2 L 0 2.0000000000000004 A 2 2 0 0 1 1.9999999999999996 0 Z" stroke-miterlimit="10" stroke-width="1.5" stroke-dasharray=""/></g><g transform="matrix(1,0,0,1,8.19921875,17.5)"><text fill="#000000" stroke="none" font-family="Open Sans" font-size="12pt" font-style="normal" font-weight="normal" text-decoration="normal" x="41.80078125" y="12" text-anchor="middle" dominant-baseline="alphabetic">Thông báo </text><text fill="#000000" stroke="none" font-family="Open Sans" font-size="12pt" font-style="normal" font-weight="normal" text-decoration="normal" x="41.80078125" y="27" text-anchor="middle" dominant-baseline="alphabetic"> hết hàng   </text><text fill="#000000" stroke="none" font-family="Open Sans" font-size="12pt" font-style="normal" font-weight="normal" text-decoration="normal" x="41.80078125" y="42" text-anchor="middle" dominant-baseline="alphabetic">   cho KH    </text></g></g><g id="Flow_StockToNotify" bpmn2nodeid="Flow_StockToNotify"><g><path fill="none" stroke="#000000" paint-order="fill stroke markers" d=" M 548 206 L 548 272" stroke-miterlimit="10" stroke-dasharray=""/></g><g transform="matrix(1,0,0,1,548,206)"/><g transform="matrix(-1,1.2246467991473532e-16,-1.2246467991473532e-16,-1,553,287)"><path fill="#000000" stroke="#000000" paint-order="fill stroke markers" d=" M 10 15 L 0 15 L 5 0 Z" stroke-miterlimit="10" stroke-dasharray=""/></g><g transform="matrix(1,0,0,1,558,233.5)"><text fill="#000000" stroke="none" font-family="Open Sans" font-size="10pt" font-style="normal" font-weight="normal" text-decoration="normal" x="0" y="10.4" text-anchor="start" dominant-baseline="alphabetic">Không            </text></g></g><g id="Flow_NotifyToAlternative" bpmn2nodeid="Flow_NotifyToAlternative"><g><path fill="none" stroke="rgb(0,0,0)" paint-order="fill stroke markers" d=" M 598 327 L 624 327 L 624 350 L 635 350" stroke-miterlimit="10" stroke-dasharray=""/></g><g transform="matrix(1,0,0,1,598,327)"/><g transform="matrix(6.123233995736766e-17,1,-1,6.123233995736766e-17,650,345)"><path fill="rgb(0,0,0)" stroke="rgb(0,0,0)" paint-order="fill stroke markers" d=" M 10 15 L 0 15 L 5 0 Z" stroke-miterlimit="10" stroke-dasharray=""/></g><g transform="matrix(1,0,0,1,598,317)"/></g><g transform="matrix(1,0,0,1,498,287)"/><g id="Task_CancelOrder" bpmn2nodeid="Task_CancelOrder" transform="matrix(1,0,0,1,778,421)"><g><path fill="none" stroke="none"/></g><g transform="matrix(1,0,0,1,0,0)"><path fill="#ffffff" stroke="none" id="Task_CancelOrder?shapeType=BACKGROUND" paint-order="stroke fill markers" d=" M 2 0 L 98 0 L 98 0 A 2 2 0 0 1 100 2 L 100 78 L 100 78 A 2 2 0 0 1 98 80 L 2 80 L 2 80 A 2 2 0 0 1 0 78 L 0 2 L 0 2.0000000000000004 A 2 2 0 0 1 1.9999999999999996 0 Z"/></g><g transform="matrix(1,0,0,1,0,0)"><path fill="none" stroke="rgb(0,0,0)" id="Task_CancelOrder?shapeType=BORDER&amp;renderType=STROKE" paint-order="fill stroke markers" d=" M 2 0 L 98 0 L 98 0 A 2 2 0 0 1 100 2 L 100 78 L 100 78 A 2 2 0 0 1 98 80 L 2 80 L 2 80 A 2 2 0 0 1 0 78 L 0 2 L 0 2.0000000000000004 A 2 2 0 0 1 1.9999999999999996 0 Z" stroke-miterlimit="10" stroke-width="1.5" stroke-dasharray=""/></g><g transform="matrix(1,0,0,1,18.14453125,25)"><text fill="#000000" stroke="none" font-family="Open Sans" font-size="12pt" font-style="normal" font-weight="normal" text-decoration="normal" x="31.85546875" y="12" text-anchor="middle" dominant-baseline="alphabetic">Hủy đơn </text><text fill="#000000" stroke="none" font-family="Open Sans" font-size="12pt" font-style="normal" font-weight="normal" text-decoration="normal" x="31.85546875" y="27" text-anchor="middle" dominant-baseline="alphabetic">   hàng   </text></g></g><g id="Flow_CustomerDisagrees" bpmn2nodeid="Flow_CustomerDisagrees"><g><path fill="none" stroke="#000000" paint-order="fill stroke markers" d=" M 828 328 L 828 406" stroke-miterlimit="10" stroke-dasharray=""/></g><g transform="matrix(1,0,0,1,828,328)"/><g transform="matrix(-1,1.2246467991473532e-16,-1.2246467991473532e-16,-1,833,421)"><path fill="#000000" stroke="#000000" paint-order="fill stroke markers" d=" M 10 15 L 0 15 L 5 0 Z" stroke-miterlimit="10" stroke-dasharray=""/></g><g transform="matrix(1,0,0,1,838,361.5)"><text fill="#000000" stroke="none" font-family="Open Sans" font-size="10pt" font-style="normal" font-weight="normal" text-decoration="normal" x="0" y="10.4" text-anchor="start" dominant-baseline="alphabetic">Không               </text></g></g><g transform="matrix(1,0,0,1,778,421)"/><g id="EndEvent_OrderCancelled" bpmn2nodeid="EndEvent_OrderCancelled" transform="matrix(1,0,0,1,922,433)"><g><path fill="none" stroke="none"/></g><g transform="matrix(0.125,0,0,0.125,0,0)"><g transform="matrix(1,0,0,1,0,0)"><path fill="#fce7e7" stroke="black" id="EndEvent_OrderCancelled?shapeType=BACKGROUND" paint-order="fill stroke markers" d=" M 0 0 M 444 224 C 444 263.9 434.2 300.8 414.4 334.5 C 394.7 368.2 368 394.9 334.4 414.5 C 300.79999999999995 434.1 263.9 444 224 444 C 184.10000000000002 444 147.2 434.2 113.5 414.4 C 79.8 394.7 53.1 368 33.5 334.4 C 13.899999999999999 300.79999999999995 4 263.9 4 224 C 4 184.10000000000002 13.8 147.2 33.6 113.5 C 53.400000000000006 79.80000000000001 80.1 53.1 113.6 33.5 C 147.1 13.899999999999999 184.1 4 224 4 C 263.9 4 300.8 13.8 334.5 33.6 C 368.2 53.400000000000006 394.9 80.1 414.5 113.6 C 434.1 147.1 444 184.1 444 224 Z" stroke-miterlimit="10" stroke-dasharray=""/></g><g><g transform="matrix(1,0,0,1,0,0)"><g transform="matrix(1,0,0,1,0,0)"><path fill="rgb(163,0,0)" stroke="black" id="EndEvent_OrderCancelled?shapeType=BORDER&amp;renderType=FILL" paint-order="fill stroke markers" d=" M 0 0 M 224 0 C 100.3 0 0 100.3 0 224 C 0 347.7 100.3 448 224 448 C 347.7 448 448 347.7 448 224 C 448 100.30000000000001 347.7 0 224 0 Z M 0 0 M 224 400 C 126.8 400 48 321.2 48 224 C 48 126.80000000000001 126.8 48 224 48 C 321.2 48 400 126.8 400 224 C 400 321.2 321.2 400 224 400 Z" stroke-miterlimit="10" stroke-dasharray=""/></g></g></g></g><g transform="matrix(1,0,0,1,-32.49609375,61)"><text fill="#000000" stroke="none" font-family="Open Sans" font-size="12pt" font-style="normal" font-weight="normal" text-decoration="normal" x="60.49609375" y="12" text-anchor="middle" dominant-baseline="alphabetic">Đơn hàng bị hủy</text></g></g><g id="Flow_CancelToEnd" bpmn2nodeid="Flow_CancelToEnd"><g><path fill="none" stroke="#000000" paint-order="fill stroke markers" d=" M 878 461 L 907 461" stroke-miterlimit="10" stroke-dasharray=""/></g><g transform="matrix(1,0,0,1,878,461)"/><g transform="matrix(6.123233995736766e-17,1,-1,6.123233995736766e-17,922,456)"><path fill="#000000" stroke="#000000" paint-order="fill stroke markers" d=" M 10 15 L 0 15 L 5 0 Z" stroke-miterlimit="10" stroke-dasharray=""/></g><g transform="matrix(1,0,0,1,878,451)"/></g><g transform="matrix(1,0,0,1,922,433)"/><g id="Gateway_OrderValid" bpmn2nodeid="Gateway_OrderValid" transform="matrix(1,0,0,1,294,150)"><g><path fill="none" stroke="none"/></g><g transform="matrix(0.125,0,0,0.125,0,0)"><g transform="matrix(1,0,0,1,0,0)"><path fill="#fef4ea" stroke="black" id="Gateway_OrderValid?shapeType=BACKGROUND" paint-order="fill stroke markers" d=" M 0 0 M 224.4 4.3 C 216.4 4.3 208.4 7.3 202.3 13.399999999999999 L 13.5 202.2 C 1.3000000000000007 214.39999999999998 1.3000000000000007 234.2 13.5 246.39999999999998 L 202.2 435.09999999999997 C 208.29999999999998 441.2 216.39999999999998 444.2 224.29999999999998 444.2 C 232.2 444.2 240.29999999999998 441.2 246.39999999999998 435.09999999999997 L 435.09999999999997 246.39999999999998 C 447.29999999999995 234.2 447.29999999999995 214.39999999999998 435.09999999999997 202.2 L 246.5 13.4 C 240.4 7.3 232.4 4.3 224.4 4.3 L 224.4 4.3 Z" stroke-miterlimit="10" stroke-dasharray=""/></g><g><g transform="matrix(1,0,0,1,0,0)"><g transform="matrix(1,0,0,1,0,0)"><path fill="rgb(236,122,8)" stroke="black" id="Gateway_OrderValid?shapeType=BORDER&amp;renderType=FILL" paint-order="fill stroke markers" d=" M 0 0 M 20.8 212.7 L 213.3 20.2 C 219.60000000000002 13.899999999999999 229.70000000000002 13.899999999999999 235.9 20.2 L 428.4 212.7 C 434.7 219 434.7 229.1 428.4 235.29999999999998 L 235.9 427.8 C 229.6 434.1 219.5 434.1 213.3 427.8 L 20.8 235.3 C 14.5 229.1 14.5 218.9 20.8 212.7 L 20.8 212.7 Z M 0 0 M 0 224 C 0 232.1 3.1 240.3 9.3 246.5 L 201.5 438.7 C 213.9 451.09999999999997 234.1 451.09999999999997 246.5 438.7 L 438.7 246.5 C 444.9 240.3 448 232.1 448 224 C 448 215.9 444.9 207.7 438.7 201.5 L 246.5 9.3 C 234.1 -3.0999999999999996 213.9 -3.0999999999999996 201.5 9.3 L 9.3 201.5 C 3.1 207.7 0 215.9 0 224 L 0 224 Z" stroke-miterlimit="10" stroke-dasharray=""/></g></g></g><g><g transform="matrix(1,0,0,1,0,0)"><g transform="matrix(1,0,0,1,0,0)"><path fill="#ec7a08" stroke="black" id="Gateway_OrderValid_exclusive" paint-order="fill stroke markers" d=" M 0 0 M 298.2 269.2 C 298.2 272.59999999999997 297.09999999999997 275.3 294.7 277.7 L 277.7 294.7 C 275.3 297.09999999999997 272.59999999999997 298.2 269.2 298.2 C 265.8 298.2 263.09999999999997 297.09999999999997 260.7 294.7 L 224 258 L 187.2 294.8 C 184.79999999999998 297.2 182.1 298.3 178.7 298.3 C 175.29999999999998 298.3 172.6 297.2 170.2 294.8 L 153.2 277.8 C 150.79999999999998 275.40000000000003 149.7 272.7 149.7 269.3 C 149.7 265.90000000000003 150.79999999999998 263.2 153.2 260.8 L 190 224 L 153.2 187.2 C 150.79999999999998 184.79999999999998 149.7 182 149.7 178.7 C 149.7 175.29999999999998 150.79999999999998 172.5 153.2 170.2 L 170.2 153.2 C 172.6 150.79999999999998 175.29999999999998 149.7 178.7 149.7 C 182.1 149.7 184.79999999999998 150.79999999999998 187.2 153.2 L 224 190 L 260.8 153.2 C 263.2 150.79999999999998 265.90000000000003 149.7 269.3 149.7 C 272.7 149.7 275.40000000000003 150.79999999999998 277.8 153.2 L 294.8 170.2 C 297.2 172.5 298.3 175.29999999999998 298.3 178.7 C 298.3 182 297.2 184.79999999999998 294.8 187.2 L 258 224 L 294.8 260.8 C 297.1 263.1 298.2 265.9 298.2 269.2 Z" stroke-miterlimit="10" stroke-dasharray=""/></g></g></g></g><g transform="matrix(1,0,0,1,-36.10546875,61)"><text fill="#000000" stroke="none" font-family="Open Sans" font-size="12pt" font-style="normal" font-weight="normal" text-decoration="normal" x="64.10546875" y="12" text-anchor="middle" dominant-baseline="alphabetic">Đơn hàng hợp lệ?</text></g></g><g id="Flow_CheckToValid" bpmn2nodeid="Flow_CheckToValid"><g><path fill="none" stroke="#000000" paint-order="fill stroke markers" d=" M 250 178 L 279 178" stroke-miterlimit="10" stroke-dasharray=""/></g><g transform="matrix(1,0,0,1,250,178)"/><g transform="matrix(6.123233995736766e-17,1,-1,6.123233995736766e-17,294,173)"><path fill="#000000" stroke="#000000" paint-order="fill stroke markers" d=" M 10 15 L 0 15 L 5 0 Z" stroke-miterlimit="10" stroke-dasharray=""/></g><g transform="matrix(1,0,0,1,250,168)"/></g><g id="Flow_ValidToInventory" bpmn2nodeid="Flow_ValidToInventory"><g><path fill="none" stroke="#000000" paint-order="fill stroke markers" d=" M 350 178 L 365 178" stroke-miterlimit="10" stroke-dasharray=""/></g><g transform="matrix(1,0,0,1,350,178)"/><g transform="matrix(6.123233995736766e-17,1,-1,6.123233995736766e-17,380,173)"><path fill="#000000" stroke="#000000" paint-order="fill stroke markers" d=" M 10 15 L 0 15 L 5 0 Z" stroke-miterlimit="10" stroke-dasharray=""/></g><g transform="matrix(1,0,0,1,350,155)"><text fill="#000000" stroke="none" font-family="Open Sans" font-size="10pt" font-style="normal" font-weight="normal" text-decoration="normal" x="0" y="10.4" text-anchor="start" dominant-baseline="alphabetic">Có    </text></g></g><g transform="matrix(1,0,0,1,294,150)"/><g id="Task_ContactCustomer" bpmn2nodeid="Task_ContactCustomer" transform="matrix(1,0,0,1,222,24)"><g><path fill="none" stroke="none"/></g><g transform="matrix(1,0,0,1,0,0)"><path fill="#ffffff" stroke="none" id="Task_ContactCustomer?shapeType=BACKGROUND" paint-order="stroke fill markers" d=" M 2 0 L 98 0 L 98 0 A 2 2 0 0 1 100 2 L 100 78 L 100 78 A 2 2 0 0 1 98 80 L 2 80 L 2 80 A 2 2 0 0 1 0 78 L 0 2 L 0 2.0000000000000004 A 2 2 0 0 1 1.9999999999999996 0 Z"/></g><g transform="matrix(1,0,0,1,0,0)"><path fill="none" stroke="rgb(0,0,0)" id="Task_ContactCustomer?shapeType=BORDER&amp;renderType=STROKE" paint-order="fill stroke markers" d=" M 2 0 L 98 0 L 98 0 A 2 2 0 0 1 100 2 L 100 78 L 100 78 A 2 2 0 0 1 98 80 L 2 80 L 2 80 A 2 2 0 0 1 0 78 L 0 2 L 0 2.0000000000000004 A 2 2 0 0 1 1.9999999999999996 0 Z" stroke-miterlimit="10" stroke-width="1.5" stroke-dasharray=""/></g><g transform="matrix(1,0,0,1,7.5625,25)"><text fill="#000000" stroke="none" font-family="Open Sans" font-size="12pt" font-style="normal" font-weight="normal" text-decoration="normal" x="42.4375" y="12" text-anchor="middle" dominant-baseline="alphabetic">Liên hệ KH  </text><text fill="#000000" stroke="none" font-family="Open Sans" font-size="12pt" font-style="normal" font-weight="normal" text-decoration="normal" x="42.4375" y="27" text-anchor="middle" dominant-baseline="alphabetic">để xác nhận</text></g></g><g id="Flow_ValidToContact" bpmn2nodeid="Flow_ValidToContact"><g><path fill="none" stroke="rgb(0,0,0)" paint-order="fill stroke markers" d=" M 322 150 L 334 121 L 342 105 L 328.57635448032124 77.48152668465849" stroke-miterlimit="10" stroke-dasharray=""/></g><g transform="matrix(1,0,0,1,322,150)"/><g transform="matrix(0.8987684456438988,-0.4384236320214161,0.4384236320214161,0.8987684456438988,317.5061577717805,66.19211816010709)"><path fill="rgb(0,0,0)" stroke="rgb(0,0,0)" paint-order="fill stroke markers" d=" M 10 15 L 0 15 L 5 0 Z" stroke-miterlimit="10" stroke-dasharray=""/></g><g transform="matrix(1,0,0,1,331.2401683242189,118.676482072737)"><text fill="#000000" stroke="none" font-family="Open Sans" font-size="10pt" font-style="normal" font-weight="normal" text-decoration="normal" x="0" y="10.4" text-anchor="start" dominant-baseline="alphabetic">Không</text></g></g><g transform="matrix(1,0,0,1,222,24)"/><g id="_020E5499-E00A-4140-B9E5-2B873BFAD88D" bpmn2nodeid="_020E5499-E00A-4140-B9E5-2B873BFAD88D"><g><path fill="none" stroke="rgb(0,0,0)" paint-order="fill stroke markers" d=" M 295.25581395348837 104 L 314.46069313938204 137.0323921997371" stroke-miterlimit="10" stroke-dasharray=""/></g><g transform="matrix(1,0,0,1,295.25581395348837,104)"/><g transform="matrix(-0.8645071866841929,0.5026204573745303,-0.5026204573745303,-0.8645071866841929,326.32253593342097,147.48689771312735)"><path fill="rgb(0,0,0)" stroke="rgb(0,0,0)" paint-order="fill stroke markers" d=" M 10 15 L 0 15 L 5 0 Z" stroke-miterlimit="10" stroke-dasharray=""/></g><g transform="matrix(1,0,0,1,303.9008858203303,121.9737954262547)"/></g></g></g></svg>